<?xml version="1.0" encoding="UTF-8"?>
<svg xmlns="http://www.w3.org/2000/svg" xmlns:xlink="http://www.w3.org/1999/xlink" width="2400" height="1680" viewBox="0 0 2400 1680">

<path fill-rule="nonzero" fill="rgb(0%, 0%, 0%)" fill-opacity="1" d="M 1097.300781 408.429688 C 1080.851562 408.429688 1080.851562 433.949219 1097.300781 433.949219 C 1113.75 433.949219 1113.75 408.429688 1097.300781 408.429688 "/>
<path fill-rule="nonzero" fill="rgb(0%, 0%, 0%)" fill-opacity="1" d="M 1295.949219 421.191406 C 1295.949219 414.230469 1290.148438 408.429688 1283.199219 408.429688 L 1281.371094 408.429688 C 1274.410156 408.429688 1268.621094 414.230469 1268.621094 421.191406 C 1268.621094 428.140625 1274.410156 433.949219 1281.371094 433.949219 L 1283.199219 433.949219 C 1290.148438 433.949219 1295.949219 428.140625 1295.949219 421.191406 "/>
<path fill-rule="nonzero" fill="rgb(0%, 0%, 0%)" fill-opacity="1" d="M 1201.890625 401.140625 C 1201.890625 394.179688 1196.078125 388.378906 1189.121094 388.378906 C 1182.171875 388.378906 1176.371094 394.179688 1176.371094 401.140625 L 1176.371094 402.960938 C 1176.371094 409.921875 1182.171875 415.71875 1189.121094 415.71875 C 1196.078125 415.71875 1201.890625 409.921875 1201.890625 402.960938 L 1201.890625 401.140625 "/>
<path fill-rule="nonzero" fill="rgb(0%, 0%, 0%)" fill-opacity="1" d="M 1350.628906 464.929688 C 1343.878906 464.929688 1341.011719 470.949219 1342.019531 476.070312 C 1346.539062 477.921875 1351.019531 479.828125 1355.460938 481.839844 C 1362.070312 477.671875 1360.460938 464.929688 1350.628906 464.929688 "/>
<path fill-rule="nonzero" fill="rgb(0%, 0%, 0%)" fill-opacity="1" d="M 1036.820312 478.058594 C 1040.761719 472.808594 1038.441406 463.109375 1029.871094 463.109375 C 1018.289062 463.109375 1018.121094 480.800781 1029.359375 481.320312 C 1031.839844 480.199219 1034.320312 479.121094 1036.820312 478.058594 "/>
<path fill-rule="nonzero" fill="rgb(0%, 0%, 0%)" fill-opacity="1" d="M 1134.261719 446.761719 C 1136.96875 440.578125 1139.078125 430.050781 1136.339844 417.519531 C 1133.730469 405.039062 1126.71875 391.128906 1115.460938 378.738281 C 1109.839844 372.550781 1103.171875 366.691406 1095.378906 361.648438 C 1091.511719 359.121094 1087.328125 356.820312 1082.828125 354.839844 L 1079.351562 353.378906 C 1077.480469 352.699219 1075.589844 352.011719 1073.46875 351.398438 C 1069.378906 350.160156 1065.199219 349.289062 1061.238281 348.808594 L 1049.648438 347.25 C 1048.789062 355.5 1047.808594 363.808594 1047.371094 371.558594 L 1047.210938 374.429688 L 1047.171875 376.179688 L 1047.140625 379.390625 C 1047.140625 381.539062 1047.179688 383.660156 1047.269531 385.769531 C 1047.621094 394.210938 1048.699219 402.421875 1050.570312 410.128906 C 1054.210938 425.558594 1061.640625 438.898438 1070.519531 447.210938 C 1077.660156 454.050781 1084.988281 457.621094 1090.71875 459.621094 C 1092.730469 459.089844 1094.738281 458.578125 1096.761719 458.089844 C 1096.511719 457.921875 1096.261719 457.75 1096.011719 457.578125 C 1091.109375 454.121094 1084.480469 448.519531 1079.390625 439.949219 C 1074.230469 431.449219 1070.921875 420.101562 1069.910156 406.890625 C 1069.410156 400.28125 1069.410156 393.21875 1069.789062 385.820312 L 1070.140625 380.199219 L 1070.390625 377.351562 L 1070.5 376.058594 L 1070.558594 375.878906 C 1070.710938 375.429688 1070.769531 375.75 1070.820312 375.710938 L 1070.839844 375.75 C 1070.839844 375.75 1070.839844 375.738281 1070.851562 375.710938 C 1070.800781 375.679688 1070.960938 375.71875 1071.109375 375.761719 L 1073.609375 376.699219 C 1077.039062 378.039062 1080.371094 379.621094 1083.589844 381.359375 C 1090.070312 384.839844 1096.050781 388.949219 1101.398438 393.320312 C 1112.128906 402.078125 1120.230469 411.980469 1124.980469 421.359375 C 1129.820312 430.75 1131 439.648438 1130.601562 445.898438 C 1130.46875 448.070312 1130.21875 449.921875 1129.960938 451.398438 C 1130.679688 451.28125 1131.398438 451.171875 1132.121094 451.058594 C 1132.789062 449.878906 1133.519531 448.449219 1134.261719 446.761719 "/>
<path fill-rule="nonzero" fill="rgb(0%, 0%, 0%)" fill-opacity="1" d="M 975.027344 479.511719 L 977.285156 482.179688 C 978.734375 483.839844 980.257812 485.410156 981.808594 486.910156 C 986.371094 491.289062 991.253906 495.019531 996.277344 498.128906 C 1003.019531 494.300781 1009.898438 490.660156 1016.878906 487.21875 C 1015.359375 486.21875 1013.851562 485.160156 1012.359375 484.03125 C 1007.429688 480.308594 1002.648438 475.929688 998.34375 470.980469 C 997.265625 469.738281 996.222656 468.46875 995.214844 467.171875 L 993.832031 465.320312 C 993.792969 465.21875 993.792969 465.191406 993.8125 465.179688 C 993.878906 465.089844 993.953125 465.109375 993.953125 465.109375 C 993.953125 465.109375 993.890625 465.089844 993.878906 464.988281 C 993.890625 464.988281 993.847656 464.988281 993.921875 464.949219 L 995.074219 464.429688 L 997.464844 463.429688 C 999.046875 462.78125 1000.628906 462.171875 1002.21875 461.609375 C 1008.539062 459.328125 1014.808594 457.71875 1020.808594 456.871094 C 1032.828125 455.121094 1043.710938 456.710938 1052.089844 460.808594 C 1056.351562 462.851562 1059.941406 465.421875 1062.910156 468.039062 C 1065.28125 467.230469 1067.679688 466.441406 1070.070312 465.671875 C 1067.789062 461.058594 1064.351562 455.878906 1058.96875 450.960938 C 1050.179688 442.789062 1035.738281 436.871094 1019.871094 436.648438 C 1011.929688 436.460938 1003.691406 437.46875 995.507812 439.628906 C 993.464844 440.160156 991.429688 440.769531 989.390625 441.460938 L 986.351562 442.519531 L 984.792969 443.109375 L 982.148438 444.21875 C 974.890625 447.28125 968.476562 451.171875 961.589844 454.921875 L 961.382812 455.03125 C 964.652344 461.898438 967.101562 468.449219 971.628906 474.921875 C 972.730469 476.519531 973.878906 478.078125 975.027344 479.511719 "/>
<path fill-rule="nonzero" fill="rgb(0%, 0%, 0%)" fill-opacity="1" d="M 1153.871094 416.261719 C 1155.730469 429.179688 1159.339844 439.949219 1163.519531 447.601562 C 1165.300781 447.46875 1167.078125 447.359375 1168.859375 447.261719 C 1166.5 439.398438 1165.261719 428.53125 1165.839844 415.570312 C 1166.46875 400.28125 1169.289062 382.089844 1174.390625 362.578125 C 1176.980469 352.851562 1180.109375 342.75 1184.019531 332.699219 C 1185.011719 330.199219 1186.019531 327.679688 1187.101562 325.21875 L 1187.890625 323.429688 L 1187.949219 323.410156 L 1188.039062 323.398438 C 1188.128906 323.429688 1188.128906 323.511719 1188.128906 323.511719 C 1188.128906 323.511719 1188.140625 323.421875 1188.230469 323.410156 L 1188.320312 323.429688 C 1188.351562 323.46875 1188.289062 323.339844 1188.410156 323.570312 L 1188.859375 324.511719 L 1189.710938 326.410156 L 1193.050781 333.941406 C 1197.328125 343.941406 1200.941406 353.769531 1203.78125 363.28125 C 1209.480469 382.300781 1211.828125 400.101562 1211.078125 415.089844 C 1210.511719 428.121094 1207.730469 438.929688 1204.820312 446.808594 C 1206.628906 446.871094 1208.441406 446.941406 1210.238281 447.019531 C 1214.871094 439.820312 1219.820312 429.75 1222.910156 416.828125 C 1226.890625 400.609375 1227.449219 380.21875 1223.421875 358.640625 C 1221.449219 347.828125 1218.410156 336.710938 1214.410156 325.570312 C 1213.398438 322.789062 1212.339844 320 1211.21875 317.199219 L 1209.121094 312.230469 L 1205.519531 304.328125 C 1200.519531 293.789062 1195.148438 284.179688 1189.699219 273.808594 L 1188.941406 274.960938 C 1182.800781 284.480469 1177.050781 292.058594 1171.710938 302.359375 C 1170.429688 304.929688 1169.171875 307.511719 1168.011719 310.171875 L 1166.308594 314.128906 L 1165.421875 316.390625 C 1164.320312 319.28125 1163.300781 322.171875 1162.371094 325.03125 C 1158.660156 336.488281 1156.199219 347.75 1154.558594 358.519531 C 1151.320312 380.109375 1151.429688 399.878906 1153.871094 416.261719 "/>
<path fill-rule="nonzero" fill="rgb(0%, 0%, 0%)" fill-opacity="1" d="M 1309.308594 447.210938 C 1318.171875 438.898438 1325.628906 425.558594 1329.261719 410.128906 C 1331.140625 402.421875 1332.210938 394.210938 1332.558594 385.769531 C 1332.648438 383.660156 1332.699219 381.539062 1332.699219 379.390625 L 1332.660156 376.179688 L 1332.621094 374.429688 L 1332.460938 371.558594 C 1332.019531 363.808594 1331.050781 355.5 1330.179688 347.25 L 1318.609375 348.808594 C 1314.621094 349.289062 1310.460938 350.160156 1306.351562 351.398438 C 1304.238281 352.011719 1302.351562 352.699219 1300.46875 353.378906 L 1296.988281 354.839844 C 1292.511719 356.820312 1288.339844 359.121094 1284.449219 361.648438 C 1276.660156 366.691406 1269.988281 372.550781 1264.359375 378.738281 C 1253.128906 391.128906 1246.109375 405.039062 1243.488281 417.519531 C 1240.75 430.050781 1242.859375 440.578125 1245.570312 446.761719 C 1246.191406 448.179688 1246.808594 449.421875 1247.390625 450.480469 C 1248.191406 450.589844 1248.980469 450.691406 1249.78125 450.808594 C 1249.550781 449.441406 1249.339844 447.800781 1249.21875 445.898438 C 1248.828125 439.648438 1250.011719 430.75 1254.851562 421.359375 C 1259.601562 411.980469 1267.710938 402.078125 1278.429688 393.320312 C 1283.78125 388.949219 1289.78125 384.839844 1296.230469 381.359375 C 1299.449219 379.621094 1302.808594 378.039062 1306.230469 376.699219 L 1308.71875 375.761719 C 1308.871094 375.71875 1309.03125 375.679688 1308.980469 375.710938 C 1308.980469 375.738281 1308.980469 375.75 1308.980469 375.75 L 1309.019531 375.710938 C 1309.050781 375.75 1309.121094 375.429688 1309.269531 375.878906 L 1309.328125 376.058594 L 1309.449219 377.351562 L 1309.679688 380.199219 L 1310.039062 385.820312 C 1310.429688 393.21875 1310.429688 400.28125 1309.910156 406.890625 C 1308.921875 420.101562 1305.609375 431.449219 1300.441406 439.949219 C 1295.441406 448.371094 1288.929688 453.929688 1284.078125 457.398438 C 1286.300781 457.929688 1288.519531 458.460938 1290.730469 459.019531 C 1296.191406 456.941406 1302.828125 453.421875 1309.308594 447.210938 "/>
<path fill-rule="nonzero" fill="rgb(0%, 0%, 0%)" fill-opacity="1" d="M 1318.011719 467.109375 C 1320.761719 464.808594 1323.988281 462.609375 1327.738281 460.808594 C 1336.128906 456.710938 1347 455.121094 1359.03125 456.871094 C 1365.019531 457.71875 1371.28125 459.328125 1377.621094 461.609375 C 1379.199219 462.171875 1380.78125 462.78125 1382.371094 463.429688 L 1384.761719 464.429688 L 1385.910156 464.949219 C 1385.96875 464.988281 1385.941406 464.988281 1385.949219 464.988281 C 1385.949219 465.089844 1385.878906 465.109375 1385.878906 465.109375 C 1385.878906 465.109375 1385.949219 465.089844 1386.011719 465.179688 C 1386.039062 465.191406 1386.039062 465.21875 1386 465.320312 L 1384.609375 467.171875 C 1383.609375 468.46875 1382.570312 469.738281 1381.480469 470.980469 C 1377.179688 475.929688 1372.398438 480.308594 1367.480469 484.03125 C 1366.511719 484.75 1365.550781 485.460938 1364.570312 486.128906 C 1371.621094 489.550781 1378.53125 493.179688 1385.339844 497 C 1389.730469 494.128906 1394 490.769531 1398.019531 486.910156 C 1399.578125 485.410156 1401.089844 483.839844 1402.558594 482.179688 L 1404.820312 479.511719 C 1405.960938 478.078125 1407.101562 476.519531 1408.210938 474.921875 C 1412.738281 468.449219 1415.179688 461.898438 1418.449219 455.03125 L 1418.238281 454.921875 C 1411.351562 451.171875 1404.941406 447.28125 1397.679688 444.21875 L 1395.03125 443.109375 L 1393.480469 442.519531 L 1390.441406 441.460938 C 1388.398438 440.769531 1386.371094 440.160156 1384.320312 439.628906 C 1376.140625 437.46875 1367.898438 436.460938 1359.96875 436.648438 C 1344.089844 436.871094 1329.648438 442.789062 1320.871094 450.960938 C 1315.898438 455.511719 1312.578125 460.269531 1310.300781 464.601562 C 1312.890625 465.410156 1315.460938 466.25 1318.011719 467.109375 "/>
<path fill-rule="nonzero" fill="rgb(0%, 0%, 0%)" fill-opacity="1" d="M 1231.230469 256.628906 C 1235.878906 269.878906 1237.601562 291.511719 1237.980469 313.550781 C 1237.980469 325.5 1238.261719 336.320312 1237.980469 346.421875 L 1237.078125 372.898438 C 1236.710938 374.789062 1236.351562 376.640625 1236.070312 378.390625 C 1233.679688 394.039062 1235.921875 403.710938 1235.851562 403.648438 C 1235.890625 403.648438 1239.730469 394.789062 1247.378906 382.429688 C 1255 370.121094 1266.179688 353.570312 1279.359375 338.210938 L 1281.800781 335.46875 C 1282.511719 334.691406 1283.238281 333.949219 1284.019531 333.191406 C 1285.578125 331.679688 1287.300781 330.21875 1289.039062 328.828125 C 1292.550781 326.050781 1296.25 323.570312 1299.890625 321.511719 C 1307.191406 317.390625 1314.238281 314.988281 1320.070312 315.039062 C 1325.929688 314.921875 1330.75 317.761719 1333.691406 320.53125 C 1336.648438 323.308594 1338.011719 325.421875 1338.03125 325.390625 C 1337.96875 325.390625 1338.171875 322.960938 1336.878906 318.578125 C 1335.699219 314.378906 1331.949219 307.320312 1323.171875 303.429688 C 1314.570312 299.53125 1303.238281 299.539062 1292.398438 302.699219 C 1286.929688 304.28125 1281.460938 306.621094 1276.140625 309.828125 C 1273.480469 311.449219 1270.839844 313.28125 1268.28125 315.421875 C 1267.011719 316.511719 1265.730469 317.671875 1264.5 318.921875 C 1263.511719 319.949219 1262.660156 320.890625 1261.769531 321.878906 C 1261.910156 319.121094 1261.988281 316.339844 1261.988281 313.570312 C 1261.910156 300.121094 1259.46875 288.171875 1255.949219 277.339844 C 1252.371094 266.601562 1247.46875 257.148438 1241.410156 250.261719 C 1235.480469 243.230469 1227.621094 239.691406 1222.480469 239.980469 C 1217.359375 240.128906 1215.230469 241.820312 1215.191406 241.691406 C 1215.140625 241.789062 1217.96875 241.730469 1221.671875 243.640625 C 1225.378906 245.53125 1228.898438 249.929688 1231.230469 256.628906 "/>
<path fill-rule="nonzero" fill="rgb(0%, 0%, 0%)" fill-opacity="1" d="M 1057.058594 315.039062 C 1062.871094 314.988281 1069.929688 317.390625 1077.230469 321.511719 C 1080.871094 323.570312 1084.558594 326.050781 1088.089844 328.828125 C 1089.828125 330.21875 1091.539062 331.679688 1093.109375 333.191406 C 1093.878906 333.949219 1094.621094 334.691406 1095.320312 335.46875 L 1097.769531 338.210938 C 1110.941406 353.570312 1122.121094 370.121094 1129.738281 382.429688 C 1137.390625 394.789062 1141.230469 403.648438 1141.28125 403.648438 C 1141.210938 403.710938 1143.449219 394.039062 1141.050781 378.390625 C 1140.769531 376.640625 1140.421875 374.789062 1140.03125 372.898438 L 1139.128906 346.421875 C 1138.871094 336.320312 1139.128906 325.5 1139.148438 313.550781 C 1139.519531 291.511719 1141.238281 269.878906 1145.890625 256.628906 C 1148.230469 249.929688 1151.75 245.53125 1155.449219 243.640625 C 1159.148438 241.730469 1161.980469 241.789062 1161.929688 241.691406 C 1161.898438 241.820312 1159.75 240.128906 1154.640625 239.980469 C 1149.511719 239.691406 1141.640625 243.230469 1135.71875 250.261719 C 1129.648438 257.148438 1124.738281 266.601562 1121.179688 277.339844 C 1117.660156 288.171875 1115.21875 300.121094 1115.140625 313.570312 C 1115.140625 316.339844 1115.21875 319.121094 1115.351562 321.878906 C 1114.46875 320.890625 1113.621094 319.949219 1112.609375 318.921875 C 1111.398438 317.671875 1110.121094 316.511719 1108.839844 315.421875 C 1106.269531 313.28125 1103.648438 311.449219 1100.988281 309.828125 C 1095.671875 306.621094 1090.199219 304.28125 1084.71875 302.699219 C 1073.878906 299.539062 1062.558594 299.53125 1053.960938 303.429688 C 1045.171875 307.320312 1041.421875 314.378906 1040.238281 318.578125 C 1038.960938 322.960938 1039.148438 325.390625 1039.078125 325.390625 C 1039.109375 325.421875 1040.46875 323.308594 1043.441406 320.53125 C 1046.371094 317.761719 1051.199219 314.921875 1057.058594 315.039062 "/>
<path fill-rule="nonzero" fill="rgb(0%, 0%, 0%)" fill-opacity="1" d="M 899.375 463.058594 C 900.996094 465.71875 902.816406 468.351562 904.96875 470.921875 C 906.050781 472.179688 907.21875 473.46875 908.464844 474.679688 C 909.492188 475.679688 910.417969 476.539062 911.421875 477.410156 C 908.65625 477.28125 905.890625 477.191406 903.105469 477.210938 C 889.652344 477.28125 877.710938 479.730469 866.886719 483.25 C 856.144531 486.820312 846.691406 491.71875 839.796875 497.789062 C 832.773438 503.699219 829.226562 511.578125 829.523438 516.710938 C 829.675781 521.828125 831.363281 523.960938 831.230469 524 C 831.324219 524.058594 831.261719 521.21875 833.1875 517.53125 C 835.078125 513.820312 839.472656 510.289062 846.175781 507.960938 C 859.429688 503.308594 881.050781 501.578125 903.085938 501.210938 C 915.039062 501.191406 925.878906 500.941406 935.972656 501.191406 L 962.441406 502.109375 C 964.328125 502.488281 966.179688 502.839844 967.929688 503.121094 C 975.519531 504.289062 981.710938 504.359375 986.0625 504.128906 C 987.355469 503.339844 988.667969 502.578125 989.972656 501.808594 C 986.328125 500.03125 979.863281 496.699219 971.964844 491.820312 C 959.667969 484.199219 943.105469 473.011719 927.746094 459.828125 L 925.011719 457.398438 C 924.226562 456.679688 923.492188 455.949219 922.730469 455.171875 C 921.234375 453.609375 919.757812 451.898438 918.375 450.148438 C 915.585938 446.628906 913.109375 442.941406 911.050781 439.300781 C 906.9375 431.988281 904.527344 424.941406 904.574219 419.128906 C 904.460938 413.269531 907.308594 408.441406 910.085938 405.511719 C 912.84375 402.550781 914.964844 401.179688 914.925781 401.148438 C 914.925781 401.21875 912.515625 401.019531 908.121094 402.300781 C 903.9375 403.488281 896.859375 407.25 892.976562 416.019531 C 889.070312 424.628906 889.09375 435.941406 892.238281 446.789062 C 893.828125 452.261719 896.160156 457.738281 899.375 463.058594 "/>
<path fill-rule="nonzero" fill="rgb(0%, 0%, 0%)" fill-opacity="1" d="M 1397.589844 504.128906 C 1401.941406 504.359375 1408.128906 504.289062 1415.710938 503.121094 C 1417.460938 502.839844 1419.320312 502.488281 1421.21875 502.109375 L 1447.679688 501.191406 C 1457.769531 500.941406 1468.601562 501.191406 1480.558594 501.210938 C 1502.601562 501.578125 1524.210938 503.308594 1537.480469 507.960938 C 1544.179688 510.289062 1548.570312 513.820312 1550.460938 517.53125 C 1552.390625 521.21875 1552.328125 524.058594 1552.421875 524 C 1552.28125 523.960938 1553.980469 521.828125 1554.128906 516.710938 C 1554.421875 511.578125 1550.871094 503.699219 1543.851562 497.789062 C 1536.960938 491.71875 1527.511719 486.820312 1516.769531 483.25 C 1505.941406 479.730469 1493.988281 477.28125 1480.539062 477.210938 C 1477.761719 477.191406 1474.988281 477.28125 1472.230469 477.410156 C 1473.21875 476.539062 1474.171875 475.679688 1475.179688 474.679688 C 1476.429688 473.46875 1477.601562 472.179688 1478.679688 470.921875 C 1480.828125 468.351562 1482.660156 465.71875 1484.28125 463.058594 C 1487.480469 457.738281 1489.820312 452.261719 1491.398438 446.789062 C 1494.558594 435.941406 1494.578125 424.628906 1490.671875 416.019531 C 1486.789062 407.25 1479.710938 403.488281 1475.53125 402.300781 C 1471.128906 401.019531 1468.730469 401.21875 1468.730469 401.148438 C 1468.679688 401.179688 1470.800781 402.550781 1473.570312 405.511719 C 1476.351562 408.441406 1479.191406 413.269531 1479.070312 419.128906 C 1479.109375 424.941406 1476.710938 431.988281 1472.601562 439.300781 C 1470.53125 442.941406 1468.058594 446.628906 1465.28125 450.148438 C 1463.878906 451.898438 1462.421875 453.609375 1460.910156 455.171875 C 1460.160156 455.949219 1459.410156 456.679688 1458.640625 457.398438 L 1455.898438 459.828125 C 1440.539062 473.011719 1423.96875 484.199219 1411.679688 491.820312 C 1403.789062 496.699219 1397.320312 500.019531 1393.671875 501.808594 C 1394.980469 502.578125 1396.289062 503.339844 1397.589844 504.128906 "/>
<path fill-rule="nonzero" fill="rgb(0%, 0%, 0%)" fill-opacity="1" d="M 1097.300781 293.480469 C 1102.730469 293.480469 1107.128906 289.078125 1107.128906 283.660156 C 1107.128906 278.230469 1102.730469 273.820312 1097.300781 273.820312 C 1091.859375 273.820312 1087.46875 278.230469 1087.46875 283.660156 C 1087.46875 289.078125 1091.859375 293.480469 1097.300781 293.480469 "/>
<path fill-rule="nonzero" fill="rgb(0%, 0%, 0%)" fill-opacity="1" d="M 1281.53125 292.160156 C 1286.230469 289.449219 1287.839844 283.429688 1285.140625 278.738281 C 1282.421875 274.03125 1276.398438 272.421875 1271.699219 275.140625 C 1266.988281 277.859375 1265.378906 283.871094 1268.101562 288.570312 C 1270.820312 293.269531 1276.828125 294.878906 1281.53125 292.160156 "/>
<path fill-rule="nonzero" fill="rgb(0%, 0%, 0%)" fill-opacity="1" d="M 1302.699219 1271.574219 C 1319.148438 1271.574219 1319.148438 1246.054688 1302.699219 1246.054688 C 1286.25 1246.054688 1286.25 1271.574219 1302.699219 1271.574219 "/>
<path fill-rule="nonzero" fill="rgb(0%, 0%, 0%)" fill-opacity="1" d="M 1104.050781 1258.8125 C 1104.050781 1265.769531 1109.851562 1271.574219 1116.800781 1271.574219 L 1118.628906 1271.574219 C 1125.589844 1271.574219 1131.378906 1265.769531 1131.378906 1258.8125 C 1131.378906 1251.859375 1125.589844 1246.054688 1118.628906 1246.054688 L 1116.800781 1246.054688 C 1109.851562 1246.054688 1104.050781 1251.859375 1104.050781 1258.8125 "/>
<path fill-rule="nonzero" fill="rgb(0%, 0%, 0%)" fill-opacity="1" d="M 1198.109375 1278.863281 C 1198.109375 1285.816406 1203.921875 1291.617188 1210.878906 1291.617188 C 1217.828125 1291.617188 1223.628906 1285.816406 1223.628906 1278.863281 L 1223.628906 1277.035156 C 1223.628906 1270.082031 1217.828125 1264.277344 1210.878906 1264.277344 C 1203.921875 1264.277344 1198.109375 1270.082031 1198.109375 1277.035156 L 1198.109375 1278.863281 "/>
<path fill-rule="nonzero" fill="rgb(0%, 0%, 0%)" fill-opacity="1" d="M 1049.371094 1215.074219 C 1056.121094 1215.074219 1058.988281 1209.054688 1057.980469 1203.933594 C 1053.460938 1202.082031 1048.980469 1200.167969 1044.539062 1198.15625 C 1037.929688 1202.328125 1039.539062 1215.074219 1049.371094 1215.074219 "/>
<path fill-rule="nonzero" fill="rgb(0%, 0%, 0%)" fill-opacity="1" d="M 1363.179688 1201.945312 C 1359.238281 1207.1875 1361.558594 1216.890625 1370.128906 1216.890625 C 1381.710938 1216.890625 1381.878906 1199.199219 1370.640625 1198.683594 C 1368.160156 1199.796875 1365.679688 1200.882812 1363.179688 1201.945312 "/>
<path fill-rule="nonzero" fill="rgb(0%, 0%, 0%)" fill-opacity="1" d="M 1265.738281 1233.238281 C 1263.03125 1239.417969 1260.921875 1249.949219 1263.660156 1262.476562 C 1266.269531 1274.960938 1273.28125 1288.871094 1284.539062 1301.257812 C 1290.160156 1307.453125 1296.828125 1313.3125 1304.621094 1318.351562 C 1308.488281 1320.878906 1312.671875 1323.175781 1317.171875 1325.160156 L 1320.648438 1326.621094 C 1322.519531 1327.304688 1324.410156 1327.988281 1326.53125 1328.605469 C 1330.621094 1329.84375 1334.800781 1330.710938 1338.761719 1331.1875 L 1350.351562 1332.746094 C 1351.210938 1324.5 1352.191406 1316.191406 1352.628906 1308.441406 L 1352.789062 1305.570312 L 1352.828125 1303.820312 L 1352.859375 1300.605469 C 1352.859375 1298.460938 1352.820312 1296.34375 1352.730469 1294.230469 C 1352.378906 1285.792969 1351.300781 1277.578125 1349.429688 1269.871094 C 1345.789062 1254.4375 1338.359375 1241.105469 1329.480469 1232.789062 C 1322.339844 1225.949219 1315.011719 1222.382812 1309.28125 1220.386719 C 1307.269531 1220.910156 1305.261719 1221.414062 1303.238281 1221.910156 C 1303.488281 1222.078125 1303.738281 1222.246094 1303.988281 1222.425781 C 1308.890625 1225.882812 1315.519531 1231.484375 1320.609375 1240.050781 C 1325.769531 1248.550781 1329.078125 1259.898438 1330.089844 1273.105469 C 1330.589844 1279.722656 1330.589844 1286.78125 1330.210938 1294.183594 L 1329.859375 1299.800781 L 1329.609375 1302.648438 L 1329.5 1303.941406 L 1329.441406 1304.117188 C 1329.289062 1304.566406 1329.230469 1304.246094 1329.179688 1304.292969 L 1329.160156 1304.246094 C 1329.160156 1304.246094 1329.160156 1304.261719 1329.148438 1304.292969 C 1329.199219 1304.320312 1329.039062 1304.277344 1328.890625 1304.238281 L 1326.390625 1303.296875 C 1322.960938 1301.960938 1319.628906 1300.378906 1316.410156 1298.636719 C 1309.929688 1295.15625 1303.949219 1291.054688 1298.601562 1286.683594 C 1287.871094 1277.921875 1279.769531 1268.023438 1275.019531 1258.640625 C 1270.179688 1249.253906 1269 1240.351562 1269.398438 1234.097656 C 1269.53125 1231.925781 1269.78125 1230.085938 1270.039062 1228.601562 C 1269.320312 1228.714844 1268.601562 1228.835938 1267.878906 1228.945312 C 1267.210938 1230.125 1266.480469 1231.546875 1265.738281 1233.238281 "/>
<path fill-rule="nonzero" fill="rgb(0%, 0%, 0%)" fill-opacity="1" d="M 1424.96875 1200.492188 L 1422.710938 1197.820312 C 1421.261719 1196.164062 1419.738281 1194.589844 1418.191406 1193.09375 C 1413.628906 1188.707031 1408.738281 1184.976562 1403.71875 1181.867188 C 1396.980469 1185.703125 1390.101562 1189.335938 1383.121094 1192.777344 C 1384.640625 1193.78125 1386.148438 1194.84375 1387.640625 1195.976562 C 1392.570312 1199.691406 1397.351562 1204.066406 1401.660156 1209.023438 C 1402.730469 1210.257812 1403.78125 1211.53125 1404.789062 1212.832031 L 1406.171875 1214.679688 C 1406.210938 1214.785156 1406.210938 1214.8125 1406.191406 1214.824219 C 1406.121094 1214.90625 1406.050781 1214.890625 1406.050781 1214.890625 C 1406.050781 1214.890625 1406.109375 1214.90625 1406.121094 1215.007812 C 1406.109375 1215.011719 1406.148438 1215.011719 1406.078125 1215.050781 L 1404.921875 1215.566406 L 1402.539062 1216.570312 C 1400.960938 1217.214844 1399.371094 1217.832031 1397.78125 1218.394531 C 1391.460938 1220.675781 1385.191406 1222.28125 1379.191406 1223.128906 C 1367.171875 1224.878906 1356.289062 1223.289062 1347.910156 1219.191406 C 1343.648438 1217.152344 1340.058594 1214.582031 1337.089844 1211.957031 C 1334.71875 1212.773438 1332.320312 1213.558594 1329.929688 1214.332031 C 1332.210938 1218.941406 1335.648438 1224.113281 1341.03125 1229.035156 C 1349.820312 1237.214844 1364.261719 1243.132812 1380.128906 1243.355469 C 1388.070312 1243.542969 1396.308594 1242.527344 1404.488281 1240.375 C 1406.539062 1239.84375 1408.570312 1239.226562 1410.609375 1238.542969 L 1413.648438 1237.480469 L 1415.210938 1236.886719 L 1417.851562 1235.785156 C 1425.109375 1232.722656 1431.519531 1228.832031 1438.410156 1225.082031 L 1438.621094 1224.96875 C 1435.351562 1218.097656 1432.898438 1211.546875 1428.371094 1205.078125 C 1427.269531 1203.476562 1426.121094 1201.917969 1424.96875 1200.492188 "/>
<path fill-rule="nonzero" fill="rgb(0%, 0%, 0%)" fill-opacity="1" d="M 1246.128906 1263.746094 C 1244.269531 1250.816406 1240.660156 1240.050781 1236.480469 1232.402344 C 1234.699219 1232.527344 1232.921875 1232.640625 1231.140625 1232.742188 C 1233.5 1240.601562 1234.738281 1251.472656 1234.160156 1264.429688 C 1233.53125 1279.722656 1230.710938 1297.910156 1225.609375 1317.414062 C 1223.019531 1327.152344 1219.890625 1337.246094 1215.980469 1347.300781 C 1214.988281 1349.800781 1213.980469 1352.316406 1212.898438 1354.78125 L 1212.109375 1356.566406 L 1212.050781 1356.589844 L 1211.960938 1356.597656 C 1211.871094 1356.570312 1211.871094 1356.488281 1211.871094 1356.488281 C 1211.871094 1356.488281 1211.859375 1356.582031 1211.769531 1356.589844 L 1211.679688 1356.570312 C 1211.648438 1356.527344 1211.710938 1356.664062 1211.589844 1356.429688 L 1211.140625 1355.488281 L 1210.28125 1353.59375 L 1206.949219 1346.0625 C 1202.671875 1336.058594 1199.058594 1326.234375 1196.21875 1316.71875 C 1190.519531 1297.703125 1188.171875 1279.902344 1188.921875 1264.90625 C 1189.488281 1251.878906 1192.269531 1241.066406 1195.179688 1233.1875 C 1193.371094 1233.128906 1191.558594 1233.0625 1189.761719 1232.980469 C 1185.128906 1240.183594 1180.179688 1250.246094 1177.089844 1263.167969 C 1173.109375 1279.386719 1172.550781 1299.785156 1176.578125 1321.359375 C 1178.550781 1332.171875 1181.589844 1343.289062 1185.589844 1354.429688 C 1186.601562 1357.210938 1187.660156 1360.003906 1188.78125 1362.796875 L 1190.878906 1367.773438 L 1194.480469 1375.671875 C 1199.480469 1386.207031 1204.851562 1395.820312 1210.300781 1406.1875 L 1211.058594 1405.039062 C 1217.199219 1395.515625 1222.949219 1387.9375 1228.289062 1377.640625 C 1229.570312 1375.066406 1230.828125 1372.496094 1231.988281 1369.828125 L 1233.691406 1365.867188 L 1234.578125 1363.609375 C 1235.679688 1360.722656 1236.699219 1357.835938 1237.628906 1354.96875 C 1241.339844 1343.507812 1243.800781 1332.253906 1245.441406 1321.476562 C 1248.679688 1299.890625 1248.570312 1280.113281 1246.128906 1263.746094 "/>
<path fill-rule="nonzero" fill="rgb(0%, 0%, 0%)" fill-opacity="1" d="M 1090.691406 1232.789062 C 1081.828125 1241.105469 1074.371094 1254.4375 1070.738281 1269.871094 C 1068.859375 1277.578125 1067.789062 1285.792969 1067.441406 1294.230469 C 1067.351562 1296.34375 1067.300781 1298.460938 1067.300781 1300.605469 L 1067.339844 1303.820312 L 1067.378906 1305.570312 L 1067.539062 1308.441406 C 1067.980469 1316.191406 1068.949219 1324.5 1069.820312 1332.746094 L 1081.390625 1331.1875 C 1085.378906 1330.710938 1089.539062 1329.84375 1093.648438 1328.605469 C 1095.761719 1327.988281 1097.648438 1327.304688 1099.53125 1326.621094 L 1103.011719 1325.160156 C 1107.488281 1323.175781 1111.660156 1320.878906 1115.550781 1318.351562 C 1123.339844 1313.3125 1130.011719 1307.453125 1135.640625 1301.257812 C 1146.871094 1288.871094 1153.890625 1274.960938 1156.5 1262.476562 C 1159.25 1249.949219 1157.140625 1239.417969 1154.429688 1233.238281 C 1153.808594 1231.816406 1153.191406 1230.582031 1152.609375 1229.523438 C 1151.808594 1229.410156 1151.019531 1229.304688 1150.21875 1229.1875 C 1150.449219 1230.5625 1150.660156 1232.203125 1150.78125 1234.097656 C 1151.171875 1240.351562 1149.988281 1249.253906 1145.148438 1258.640625 C 1140.398438 1268.023438 1132.289062 1277.921875 1121.570312 1286.683594 C 1116.21875 1291.054688 1110.21875 1295.15625 1103.769531 1298.636719 C 1100.550781 1300.378906 1097.191406 1301.960938 1093.769531 1303.296875 L 1091.28125 1304.238281 C 1091.128906 1304.277344 1090.96875 1304.320312 1091.019531 1304.292969 C 1091.019531 1304.261719 1091.019531 1304.246094 1091.019531 1304.246094 L 1090.980469 1304.292969 C 1090.949219 1304.246094 1090.878906 1304.566406 1090.730469 1304.117188 L 1090.671875 1303.941406 L 1090.550781 1302.648438 L 1090.320312 1299.800781 L 1089.960938 1294.183594 C 1089.570312 1286.78125 1089.570312 1279.722656 1090.089844 1273.105469 C 1091.078125 1259.898438 1094.390625 1248.550781 1099.558594 1240.050781 C 1104.558594 1231.625 1111.070312 1226.070312 1115.921875 1222.597656 C 1113.699219 1222.070312 1111.480469 1221.542969 1109.269531 1220.976562 C 1103.808594 1223.066406 1097.171875 1226.578125 1090.691406 1232.789062 "/>
<path fill-rule="nonzero" fill="rgb(0%, 0%, 0%)" fill-opacity="1" d="M 1081.988281 1212.890625 C 1079.238281 1215.1875 1076.011719 1217.394531 1072.261719 1219.191406 C 1063.871094 1223.289062 1053 1224.878906 1040.980469 1223.128906 C 1034.980469 1222.28125 1028.71875 1220.675781 1022.378906 1218.394531 C 1020.800781 1217.832031 1019.21875 1217.214844 1017.628906 1216.570312 L 1015.238281 1215.566406 L 1014.089844 1215.050781 C 1014.03125 1215.011719 1014.058594 1215.011719 1014.050781 1215.007812 C 1014.050781 1214.90625 1014.121094 1214.890625 1014.121094 1214.890625 C 1014.121094 1214.890625 1014.050781 1214.90625 1013.988281 1214.824219 C 1013.960938 1214.8125 1013.960938 1214.785156 1014 1214.679688 L 1015.390625 1212.832031 C 1016.390625 1211.53125 1017.429688 1210.257812 1018.519531 1209.023438 C 1022.820312 1204.066406 1027.601562 1199.691406 1032.519531 1195.976562 C 1033.488281 1195.246094 1034.449219 1194.546875 1035.429688 1193.871094 C 1028.378906 1190.453125 1021.46875 1186.816406 1014.660156 1183.003906 C 1010.269531 1185.871094 1006 1189.230469 1001.980469 1193.09375 C 1000.421875 1194.589844 998.910156 1196.164062 997.441406 1197.820312 L 995.183594 1200.492188 C 994.042969 1201.917969 992.902344 1203.476562 991.796875 1205.078125 C 987.265625 1211.546875 984.816406 1218.097656 981.550781 1224.96875 L 981.761719 1225.082031 C 988.648438 1228.832031 995.0625 1232.722656 1002.320312 1235.785156 L 1004.96875 1236.886719 L 1006.519531 1237.480469 L 1009.558594 1238.542969 C 1011.601562 1239.226562 1013.628906 1239.84375 1015.679688 1240.375 C 1023.859375 1242.527344 1032.101562 1243.542969 1040.03125 1243.355469 C 1055.910156 1243.132812 1070.351562 1237.214844 1079.128906 1229.035156 C 1084.101562 1224.488281 1087.421875 1219.730469 1089.699219 1215.394531 C 1087.109375 1214.589844 1084.539062 1213.753906 1081.988281 1212.890625 "/>
<path fill-rule="nonzero" fill="rgb(0%, 0%, 0%)" fill-opacity="1" d="M 1168.769531 1423.371094 C 1164.121094 1410.117188 1162.398438 1388.488281 1162.019531 1366.453125 C 1162.019531 1354.496094 1161.738281 1343.675781 1162.019531 1333.582031 L 1162.921875 1307.097656 C 1163.289062 1305.210938 1163.648438 1303.355469 1163.929688 1301.609375 C 1166.328125 1285.960938 1164.078125 1276.285156 1164.148438 1276.355469 C 1164.109375 1276.347656 1160.269531 1285.207031 1152.621094 1297.574219 C 1145 1309.878906 1133.820312 1326.429688 1120.640625 1341.789062 L 1118.199219 1344.527344 C 1117.488281 1345.308594 1116.761719 1346.054688 1115.980469 1346.804688 C 1114.421875 1348.320312 1112.699219 1349.777344 1110.960938 1351.167969 C 1107.449219 1353.949219 1103.75 1356.429688 1100.109375 1358.488281 C 1092.808594 1362.609375 1085.761719 1365.007812 1079.929688 1364.964844 C 1074.070312 1365.078125 1069.25 1362.234375 1066.308594 1359.46875 C 1063.351562 1356.695312 1061.988281 1354.574219 1061.96875 1354.613281 C 1062.03125 1354.613281 1061.828125 1357.035156 1063.121094 1361.421875 C 1064.300781 1365.617188 1068.050781 1372.679688 1076.828125 1376.570312 C 1085.429688 1380.476562 1096.761719 1380.460938 1107.601562 1377.300781 C 1113.070312 1375.722656 1118.539062 1373.375 1123.859375 1370.171875 C 1126.519531 1368.550781 1129.160156 1366.71875 1131.71875 1364.574219 C 1132.988281 1363.488281 1134.269531 1362.324219 1135.5 1361.078125 C 1136.488281 1360.054688 1137.339844 1359.113281 1138.230469 1358.117188 C 1138.089844 1360.882812 1138.011719 1363.65625 1138.011719 1366.429688 C 1138.089844 1379.882812 1140.53125 1391.828125 1144.050781 1402.660156 C 1147.628906 1413.398438 1152.53125 1422.855469 1158.589844 1429.738281 C 1164.519531 1436.769531 1172.378906 1440.3125 1177.519531 1440.023438 C 1182.640625 1439.871094 1184.769531 1438.183594 1184.808594 1438.3125 C 1184.859375 1438.214844 1182.03125 1438.273438 1178.328125 1436.359375 C 1174.621094 1434.46875 1171.101562 1430.066406 1168.769531 1423.371094 "/>
<path fill-rule="nonzero" fill="rgb(0%, 0%, 0%)" fill-opacity="1" d="M 1342.941406 1364.964844 C 1337.128906 1365.007812 1330.070312 1362.609375 1322.769531 1358.488281 C 1319.128906 1356.429688 1315.441406 1353.949219 1311.910156 1351.167969 C 1310.171875 1349.777344 1308.460938 1348.320312 1306.890625 1346.804688 C 1306.121094 1346.054688 1305.378906 1345.308594 1304.679688 1344.527344 L 1302.230469 1341.789062 C 1289.058594 1326.429688 1277.878906 1309.878906 1270.261719 1297.574219 C 1262.609375 1285.207031 1258.769531 1276.347656 1258.71875 1276.355469 C 1258.789062 1276.285156 1256.550781 1285.960938 1258.949219 1301.609375 C 1259.230469 1303.355469 1259.578125 1305.210938 1259.96875 1307.097656 L 1260.871094 1333.582031 C 1261.128906 1343.675781 1260.871094 1354.496094 1260.851562 1366.453125 C 1260.480469 1388.488281 1258.761719 1410.117188 1254.109375 1423.371094 C 1251.769531 1430.066406 1248.25 1434.46875 1244.550781 1436.359375 C 1240.851562 1438.273438 1238.019531 1438.214844 1238.070312 1438.3125 C 1238.101562 1438.183594 1240.25 1439.871094 1245.359375 1440.023438 C 1250.488281 1440.3125 1258.359375 1436.769531 1264.28125 1429.738281 C 1270.351562 1422.855469 1275.261719 1413.398438 1278.820312 1402.660156 C 1282.339844 1391.828125 1284.78125 1379.882812 1284.859375 1366.429688 C 1284.859375 1363.65625 1284.78125 1360.882812 1284.648438 1358.117188 C 1285.53125 1359.113281 1286.378906 1360.054688 1287.390625 1361.078125 C 1288.601562 1362.324219 1289.878906 1363.488281 1291.160156 1364.574219 C 1293.730469 1366.71875 1296.351562 1368.550781 1299.011719 1370.171875 C 1304.328125 1373.375 1309.800781 1375.722656 1315.28125 1377.300781 C 1326.121094 1380.460938 1337.441406 1380.476562 1346.039062 1376.570312 C 1354.828125 1372.679688 1358.578125 1365.617188 1359.761719 1361.421875 C 1361.039062 1357.035156 1360.851562 1354.613281 1360.921875 1354.613281 C 1360.890625 1354.574219 1359.53125 1356.695312 1356.558594 1359.46875 C 1353.628906 1362.234375 1348.800781 1365.078125 1342.941406 1364.964844 "/>
<path fill-rule="nonzero" fill="rgb(0%, 0%, 0%)" fill-opacity="1" d="M 1500.628906 1216.9375 C 1499.011719 1214.28125 1497.179688 1211.652344 1495.03125 1209.085938 C 1493.949219 1207.816406 1492.78125 1206.53125 1491.53125 1205.316406 C 1490.511719 1204.320312 1489.578125 1203.460938 1488.578125 1202.585938 C 1491.339844 1202.714844 1494.109375 1202.804688 1496.890625 1202.789062 C 1510.351562 1202.714844 1522.289062 1200.269531 1533.109375 1196.75 C 1543.851562 1193.183594 1553.308594 1188.273438 1560.199219 1182.210938 C 1567.230469 1176.300781 1570.769531 1168.425781 1570.480469 1163.296875 C 1570.328125 1158.171875 1568.640625 1156.035156 1568.769531 1156.003906 C 1568.679688 1155.945312 1568.738281 1158.78125 1566.808594 1162.472656 C 1564.921875 1166.183594 1560.53125 1169.710938 1553.828125 1172.035156 C 1540.570312 1176.691406 1518.949219 1178.417969 1496.910156 1178.789062 C 1484.960938 1178.808594 1474.121094 1179.066406 1464.03125 1178.808594 L 1437.558594 1177.894531 C 1435.671875 1177.515625 1433.820312 1177.15625 1432.070312 1176.875 C 1424.480469 1175.714844 1418.289062 1175.644531 1413.941406 1175.871094 C 1412.640625 1176.65625 1411.328125 1177.417969 1410.03125 1178.191406 C 1413.671875 1179.976562 1420.140625 1183.300781 1428.039062 1188.183594 C 1440.328125 1195.800781 1456.890625 1206.992188 1472.25 1220.164062 L 1474.988281 1222.605469 C 1475.769531 1223.320312 1476.511719 1224.050781 1477.269531 1224.832031 C 1478.769531 1226.390625 1480.238281 1228.101562 1481.621094 1229.847656 C 1484.410156 1233.367188 1486.890625 1237.0625 1488.949219 1240.703125 C 1493.058594 1248.003906 1495.46875 1255.058594 1495.429688 1260.871094 C 1495.539062 1266.734375 1492.691406 1271.566406 1489.921875 1274.492188 C 1487.160156 1277.453125 1485.039062 1278.816406 1485.070312 1278.855469 C 1485.070312 1278.777344 1487.480469 1278.976562 1491.878906 1277.699219 C 1496.058594 1276.503906 1503.140625 1272.753906 1507.019531 1263.980469 C 1510.929688 1255.371094 1510.910156 1244.058594 1507.761719 1233.210938 C 1506.171875 1227.734375 1503.839844 1222.265625 1500.628906 1216.9375 "/>
<path fill-rule="nonzero" fill="rgb(0%, 0%, 0%)" fill-opacity="1" d="M 1002.410156 1175.871094 C 998.0625 1175.644531 991.875 1175.714844 984.285156 1176.875 C 982.539062 1177.15625 980.675781 1177.515625 978.78125 1177.894531 L 952.320312 1178.808594 C 942.234375 1179.066406 931.398438 1178.808594 919.441406 1178.789062 C 897.402344 1178.417969 875.785156 1176.691406 862.515625 1172.035156 C 855.820312 1169.710938 851.425781 1166.183594 849.535156 1162.472656 C 847.613281 1158.78125 847.675781 1155.945312 847.582031 1156.003906 C 847.71875 1156.035156 846.023438 1158.171875 845.871094 1163.296875 C 845.585938 1168.425781 849.132812 1176.300781 856.148438 1182.210938 C 863.039062 1188.273438 872.496094 1193.183594 883.234375 1196.75 C 894.0625 1200.269531 906.011719 1202.714844 919.464844 1202.789062 C 922.238281 1202.804688 925.011719 1202.714844 927.769531 1202.585938 C 926.777344 1203.460938 925.832031 1204.320312 924.816406 1205.316406 C 923.566406 1206.53125 922.398438 1207.816406 921.320312 1209.085938 C 919.167969 1211.652344 917.335938 1214.28125 915.71875 1216.9375 C 912.519531 1222.265625 910.175781 1227.734375 908.597656 1233.210938 C 905.441406 1244.058594 905.421875 1255.371094 909.335938 1263.980469 C 913.210938 1272.753906 920.292969 1276.503906 924.472656 1277.699219 C 928.867188 1278.976562 931.273438 1278.777344 931.273438 1278.855469 C 931.320312 1278.816406 929.199219 1277.453125 926.433594 1274.492188 C 923.652344 1271.566406 920.8125 1266.734375 920.929688 1260.871094 C 920.886719 1255.058594 923.289062 1248.003906 927.398438 1240.703125 C 929.46875 1237.0625 931.9375 1233.367188 934.71875 1229.847656 C 936.113281 1228.101562 937.582031 1226.390625 939.089844 1224.832031 C 939.839844 1224.050781 940.585938 1223.320312 941.359375 1222.605469 L 944.105469 1220.164062 C 959.457031 1206.992188 976.023438 1195.800781 988.320312 1188.183594 C 996.214844 1183.304688 1002.679688 1179.976562 1006.328125 1178.195312 C 1005.019531 1177.421875 1003.710938 1176.660156 1002.410156 1175.871094 "/>
<path fill-rule="nonzero" fill="rgb(0%, 0%, 0%)" fill-opacity="1" d="M 1302.699219 1386.519531 C 1297.269531 1386.519531 1292.878906 1390.917969 1292.878906 1396.34375 C 1292.878906 1401.769531 1297.269531 1406.179688 1302.699219 1406.179688 C 1308.140625 1406.179688 1312.53125 1401.769531 1312.53125 1396.34375 C 1312.53125 1390.917969 1308.140625 1386.519531 1302.699219 1386.519531 "/>
<path fill-rule="nonzero" fill="rgb(0%, 0%, 0%)" fill-opacity="1" d="M 1118.46875 1387.839844 C 1113.769531 1390.554688 1112.160156 1396.566406 1114.859375 1401.261719 C 1117.578125 1405.96875 1123.601562 1407.578125 1128.300781 1404.863281 C 1133.011719 1402.144531 1134.621094 1396.132812 1131.898438 1391.429688 C 1129.179688 1386.730469 1123.171875 1385.121094 1118.46875 1387.839844 "/>
<path fill-rule="nonzero" fill="rgb(0%, 0%, 0%)" fill-opacity="1" d="M 1631.570312 737.300781 C 1631.570312 720.851562 1606.050781 720.851562 1606.050781 737.300781 C 1606.050781 753.753906 1631.570312 753.753906 1631.570312 737.300781 "/>
<path fill-rule="nonzero" fill="rgb(0%, 0%, 0%)" fill-opacity="1" d="M 1618.808594 935.953125 C 1625.769531 935.953125 1631.570312 930.152344 1631.570312 923.199219 L 1631.570312 921.371094 C 1631.570312 914.410156 1625.769531 908.621094 1618.808594 908.621094 C 1611.859375 908.621094 1606.050781 914.410156 1606.050781 921.371094 L 1606.050781 923.199219 C 1606.050781 930.152344 1611.859375 935.953125 1618.808594 935.953125 "/>
<path fill-rule="nonzero" fill="rgb(0%, 0%, 0%)" fill-opacity="1" d="M 1638.859375 841.886719 C 1645.820312 841.886719 1651.621094 836.078125 1651.621094 829.117188 C 1651.621094 822.175781 1645.820312 816.375 1638.859375 816.375 L 1637.039062 816.375 C 1630.078125 816.375 1624.28125 822.175781 1624.28125 829.117188 C 1624.28125 836.078125 1630.078125 841.886719 1637.039062 841.886719 L 1638.859375 841.886719 "/>
<path fill-rule="nonzero" fill="rgb(0%, 0%, 0%)" fill-opacity="1" d="M 1575.070312 990.632812 C 1575.070312 983.878906 1569.050781 981.011719 1563.929688 982.019531 C 1562.078125 986.535156 1560.171875 991.023438 1558.160156 995.457031 C 1562.328125 1002.066406 1575.070312 1000.460938 1575.070312 990.632812 "/>
<path fill-rule="nonzero" fill="rgb(0%, 0%, 0%)" fill-opacity="1" d="M 1561.941406 676.820312 C 1567.191406 680.761719 1576.890625 678.441406 1576.890625 669.871094 C 1576.890625 658.289062 1559.199219 658.121094 1558.679688 669.359375 C 1559.800781 671.839844 1560.878906 674.320312 1561.941406 676.820312 "/>
<path fill-rule="nonzero" fill="rgb(0%, 0%, 0%)" fill-opacity="1" d="M 1593.238281 774.257812 C 1599.421875 776.972656 1609.949219 779.082031 1622.480469 776.339844 C 1634.960938 773.734375 1648.871094 766.71875 1661.261719 755.457031 C 1667.449219 749.839844 1673.308594 743.164062 1678.351562 735.382812 C 1680.878906 731.507812 1683.179688 727.328125 1685.160156 722.835938 L 1686.621094 719.347656 C 1687.300781 717.476562 1687.988281 715.59375 1688.601562 713.472656 C 1689.839844 709.378906 1690.710938 705.203125 1691.191406 701.242188 L 1692.75 689.644531 C 1684.5 688.785156 1676.191406 687.808594 1668.441406 687.375 L 1665.570312 687.214844 L 1663.820312 687.167969 L 1660.609375 687.136719 C 1658.460938 687.136719 1656.339844 687.175781 1654.230469 687.273438 C 1645.789062 687.617188 1637.578125 688.695312 1629.871094 690.574219 C 1614.441406 694.203125 1601.101562 701.636719 1592.789062 710.515625 C 1585.949219 717.65625 1582.378906 724.992188 1580.378906 730.722656 C 1580.910156 732.726562 1581.421875 734.738281 1581.910156 736.757812 C 1582.078125 736.511719 1582.25 736.261719 1582.421875 736.007812 C 1585.878906 731.113281 1591.480469 724.476562 1600.050781 719.386719 C 1608.550781 714.230469 1619.898438 710.917969 1633.109375 709.914062 C 1639.71875 709.40625 1646.78125 709.40625 1654.179688 709.796875 L 1659.800781 710.144531 L 1662.648438 710.386719 L 1663.941406 710.5 L 1664.121094 710.5625 C 1664.570312 710.714844 1664.25 710.765625 1664.289062 710.820312 L 1664.25 710.84375 C 1664.25 710.84375 1664.261719 710.84375 1664.289062 710.851562 C 1664.320312 710.796875 1664.28125 710.953125 1664.238281 711.109375 L 1663.300781 713.609375 C 1661.960938 717.035156 1660.378906 720.371094 1658.640625 723.59375 C 1655.160156 730.070312 1651.050781 736.050781 1646.679688 741.402344 C 1637.921875 752.125 1628.019531 760.226562 1618.640625 764.980469 C 1609.25 769.820312 1600.351562 771.003906 1594.101562 770.601562 C 1591.929688 770.46875 1590.078125 770.21875 1588.601562 769.957031 C 1588.71875 770.679688 1588.828125 771.394531 1588.941406 772.117188 C 1590.121094 772.789062 1591.550781 773.519531 1593.238281 774.257812 "/>
<path fill-rule="nonzero" fill="rgb(0%, 0%, 0%)" fill-opacity="1" d="M 1560.488281 615.03125 L 1557.820312 617.289062 C 1556.160156 618.738281 1554.589844 620.261719 1553.089844 621.808594 C 1548.710938 626.371094 1544.980469 631.261719 1541.871094 636.28125 C 1545.699219 643.019531 1549.339844 649.898438 1552.78125 656.878906 C 1553.78125 655.359375 1554.839844 653.851562 1555.96875 652.359375 C 1559.691406 647.429688 1564.070312 642.648438 1569.019531 638.339844 C 1570.261719 637.269531 1571.53125 636.21875 1572.828125 635.210938 L 1574.679688 633.828125 C 1574.78125 633.789062 1574.808594 633.789062 1574.820312 633.808594 C 1574.910156 633.878906 1574.890625 633.949219 1574.890625 633.949219 C 1574.890625 633.949219 1574.910156 633.890625 1575.011719 633.878906 C 1575.011719 633.890625 1575.011719 633.851562 1575.050781 633.921875 L 1575.570312 635.078125 L 1576.570312 637.460938 C 1577.21875 639.039062 1577.828125 640.628906 1578.390625 642.21875 C 1580.671875 648.539062 1582.28125 654.808594 1583.128906 660.808594 C 1584.878906 672.828125 1583.289062 683.710938 1579.191406 692.09375 C 1577.148438 696.347656 1574.578125 699.9375 1571.960938 702.90625 C 1572.769531 705.285156 1573.558594 707.675781 1574.328125 710.074219 C 1578.941406 707.792969 1584.121094 704.347656 1589.039062 698.972656 C 1597.210938 690.175781 1603.128906 675.738281 1603.351562 659.871094 C 1603.539062 651.929688 1602.53125 643.691406 1600.371094 635.511719 C 1599.839844 633.460938 1599.230469 631.429688 1598.539062 629.390625 L 1597.480469 626.351562 L 1596.890625 624.789062 L 1595.78125 622.148438 C 1592.71875 614.890625 1588.828125 608.480469 1585.078125 601.589844 L 1584.96875 601.378906 C 1578.101562 604.648438 1571.550781 607.101562 1565.078125 611.628906 C 1563.480469 612.730469 1561.921875 613.878906 1560.488281 615.03125 "/>
<path fill-rule="nonzero" fill="rgb(0%, 0%, 0%)" fill-opacity="1" d="M 1623.738281 793.867188 C 1610.820312 795.730469 1600.050781 799.335938 1592.398438 803.519531 C 1592.53125 805.296875 1592.640625 807.074219 1592.738281 808.859375 C 1600.601562 806.5 1611.46875 805.265625 1624.429688 805.84375 C 1639.71875 806.46875 1657.910156 809.285156 1677.421875 814.394531 C 1687.148438 816.980469 1697.25 820.109375 1707.300781 824.015625 C 1709.800781 825.011719 1712.320312 826.023438 1714.78125 827.101562 L 1716.570312 827.894531 L 1716.589844 827.945312 L 1716.601562 828.035156 C 1716.570312 828.128906 1716.488281 828.128906 1716.488281 828.128906 C 1716.488281 828.128906 1716.578125 828.144531 1716.589844 828.234375 L 1716.570312 828.316406 C 1716.53125 828.347656 1716.660156 828.285156 1716.429688 828.410156 L 1715.488281 828.855469 L 1713.589844 829.714844 L 1706.058594 833.054688 C 1696.058594 837.328125 1686.230469 840.941406 1676.71875 843.777344 C 1657.699219 849.476562 1639.898438 851.832031 1624.910156 851.078125 C 1611.878906 850.515625 1601.070312 847.734375 1593.191406 844.820312 C 1593.128906 846.632812 1593.058594 848.441406 1592.980469 850.246094 C 1600.179688 854.871094 1610.25 859.820312 1623.171875 862.90625 C 1639.390625 866.890625 1659.78125 867.449219 1681.359375 863.421875 C 1692.171875 861.453125 1703.289062 858.414062 1714.429688 854.410156 C 1717.210938 853.398438 1720 852.34375 1722.800781 851.21875 L 1727.769531 849.121094 L 1735.671875 845.519531 C 1746.210938 840.523438 1755.820312 835.148438 1766.191406 829.699219 L 1765.039062 828.941406 C 1755.519531 822.800781 1747.941406 817.054688 1737.640625 811.710938 C 1735.070312 810.425781 1732.488281 809.171875 1729.828125 808.011719 L 1725.871094 806.3125 L 1723.609375 805.417969 C 1720.71875 804.316406 1717.828125 803.304688 1714.96875 802.371094 C 1703.511719 798.660156 1692.25 796.199219 1681.480469 794.558594 C 1659.890625 791.320312 1640.121094 791.433594 1623.738281 793.867188 "/>
<path fill-rule="nonzero" fill="rgb(0%, 0%, 0%)" fill-opacity="1" d="M 1592.789062 949.3125 C 1601.101562 958.175781 1614.441406 965.628906 1629.871094 969.261719 C 1637.578125 971.140625 1645.789062 972.210938 1654.230469 972.5625 C 1656.339844 972.652344 1658.460938 972.699219 1660.609375 972.699219 L 1663.820312 972.660156 L 1665.570312 972.621094 L 1668.441406 972.453125 C 1676.191406 972.023438 1684.5 971.046875 1692.75 970.183594 L 1691.191406 958.605469 C 1690.710938 954.617188 1689.839844 950.460938 1688.601562 946.355469 C 1687.988281 944.234375 1687.300781 942.351562 1686.621094 940.472656 L 1685.160156 936.992188 C 1683.179688 932.507812 1680.878906 928.335938 1678.351562 924.453125 C 1673.308594 916.660156 1667.449219 909.988281 1661.261719 904.363281 C 1648.871094 893.132812 1634.960938 886.109375 1622.480469 883.496094 C 1609.949219 880.753906 1599.421875 882.863281 1593.238281 885.570312 C 1591.820312 886.191406 1590.578125 886.808594 1589.519531 887.390625 C 1589.410156 888.1875 1589.308594 888.980469 1589.191406 889.773438 C 1590.558594 889.546875 1592.199219 889.339844 1594.101562 889.21875 C 1600.351562 888.832031 1609.25 890.007812 1618.640625 894.851562 C 1628.019531 899.597656 1637.921875 907.710938 1646.679688 918.433594 C 1651.050781 923.785156 1655.160156 929.78125 1658.640625 936.230469 C 1660.378906 939.453125 1661.960938 942.8125 1663.300781 946.226562 L 1664.238281 948.71875 C 1664.28125 948.871094 1664.320312 949.03125 1664.289062 948.976562 C 1664.261719 948.976562 1664.25 948.976562 1664.25 948.976562 L 1664.289062 949.015625 C 1664.25 949.054688 1664.570312 949.121094 1664.121094 949.273438 L 1663.941406 949.328125 L 1662.648438 949.449219 L 1659.800781 949.683594 L 1654.179688 950.039062 C 1646.78125 950.429688 1639.71875 950.429688 1633.109375 949.90625 C 1619.898438 948.914062 1608.550781 945.613281 1600.050781 940.441406 C 1591.628906 935.4375 1586.070312 928.929688 1582.601562 924.074219 C 1582.070312 926.296875 1581.539062 928.519531 1580.980469 930.726562 C 1583.058594 936.1875 1586.578125 942.835938 1592.789062 949.3125 "/>
<path fill-rule="nonzero" fill="rgb(0%, 0%, 0%)" fill-opacity="1" d="M 1572.890625 958.015625 C 1575.191406 960.761719 1577.390625 963.988281 1579.191406 967.734375 C 1583.289062 976.125 1584.878906 987.003906 1583.128906 999.023438 C 1582.28125 1005.019531 1580.671875 1011.285156 1578.390625 1017.621094 C 1577.828125 1019.195312 1577.21875 1020.785156 1576.570312 1022.371094 L 1575.570312 1024.757812 L 1575.050781 1025.90625 C 1575.011719 1025.972656 1575.011719 1025.9375 1575.011719 1025.953125 C 1574.910156 1025.953125 1574.890625 1025.882812 1574.890625 1025.882812 C 1574.890625 1025.882812 1574.910156 1025.953125 1574.820312 1026.011719 C 1574.808594 1026.042969 1574.78125 1026.042969 1574.679688 1025.996094 L 1572.828125 1024.613281 C 1571.53125 1023.609375 1570.261719 1022.570312 1569.019531 1021.480469 C 1564.070312 1017.183594 1559.691406 1012.402344 1555.96875 1007.476562 C 1555.25 1006.515625 1554.539062 1005.546875 1553.871094 1004.570312 C 1550.449219 1011.617188 1546.820312 1018.535156 1543 1025.339844 C 1545.871094 1029.734375 1549.230469 1034.003906 1553.089844 1038.019531 C 1554.589844 1039.578125 1556.160156 1041.089844 1557.820312 1042.558594 L 1560.488281 1044.816406 C 1561.921875 1045.957031 1563.480469 1047.097656 1565.078125 1048.203125 C 1571.550781 1052.734375 1578.101562 1055.183594 1584.96875 1058.449219 L 1585.078125 1058.238281 C 1588.828125 1051.351562 1592.71875 1044.9375 1595.78125 1037.679688 L 1596.890625 1035.03125 L 1597.480469 1033.476562 L 1598.539062 1030.4375 C 1599.230469 1028.398438 1599.839844 1026.371094 1600.371094 1024.316406 C 1602.53125 1016.140625 1603.539062 1007.902344 1603.351562 999.96875 C 1603.128906 984.089844 1597.210938 969.648438 1589.039062 960.871094 C 1584.488281 955.898438 1579.730469 952.578125 1575.398438 950.304688 C 1574.589844 952.886719 1573.75 955.453125 1572.890625 958.015625 "/>
<path fill-rule="nonzero" fill="rgb(0%, 0%, 0%)" fill-opacity="1" d="M 1783.371094 871.226562 C 1770.121094 875.878906 1748.488281 877.605469 1726.449219 877.976562 C 1714.5 877.984375 1703.679688 878.257812 1693.578125 877.984375 L 1667.101562 877.082031 C 1665.210938 876.710938 1663.359375 876.351562 1661.609375 876.070312 C 1645.960938 873.675781 1636.289062 875.917969 1636.351562 875.847656 C 1636.351562 875.894531 1645.210938 879.734375 1657.570312 887.378906 C 1669.878906 895 1686.429688 906.179688 1701.789062 919.359375 L 1704.53125 921.800781 C 1705.308594 922.507812 1706.050781 923.238281 1706.808594 924.019531 C 1708.320312 925.585938 1709.78125 927.300781 1711.171875 929.042969 C 1713.949219 932.554688 1716.429688 936.246094 1718.488281 939.886719 C 1722.609375 947.191406 1725.011719 954.246094 1724.960938 960.066406 C 1725.078125 965.925781 1722.238281 970.75 1719.46875 973.683594 C 1716.691406 976.648438 1714.578125 978.011719 1714.609375 978.03125 C 1714.609375 977.972656 1717.039062 978.171875 1721.421875 976.886719 C 1725.621094 975.699219 1732.679688 971.953125 1736.570312 963.167969 C 1740.46875 954.570312 1740.460938 943.238281 1737.300781 932.402344 C 1735.71875 926.929688 1733.378906 921.457031 1730.171875 916.136719 C 1728.550781 913.476562 1726.71875 910.839844 1724.578125 908.277344 C 1723.488281 907.011719 1722.328125 905.730469 1721.078125 904.503906 C 1720.050781 903.511719 1719.109375 902.65625 1718.121094 901.773438 C 1720.878906 901.910156 1723.660156 901.996094 1726.429688 901.996094 C 1739.878906 901.910156 1751.828125 899.46875 1762.660156 895.953125 C 1773.398438 892.371094 1782.851562 887.46875 1789.738281 881.40625 C 1796.769531 875.476562 1800.308594 867.617188 1800.019531 862.480469 C 1799.871094 857.359375 1798.179688 855.230469 1798.308594 855.191406 C 1798.210938 855.140625 1798.269531 857.972656 1796.359375 861.667969 C 1794.46875 865.382812 1790.070312 868.902344 1783.371094 871.226562 "/>
<path fill-rule="nonzero" fill="rgb(0%, 0%, 0%)" fill-opacity="1" d="M 1724.960938 697.054688 C 1725.011719 702.871094 1722.609375 709.929688 1718.488281 717.234375 C 1716.429688 720.867188 1713.949219 724.558594 1711.171875 728.085938 C 1709.78125 729.828125 1708.320312 731.546875 1706.808594 733.109375 C 1706.050781 733.878906 1705.308594 734.625 1704.53125 735.320312 L 1701.789062 737.769531 C 1686.429688 750.941406 1669.878906 762.121094 1657.570312 769.742188 C 1645.210938 777.390625 1636.351562 781.226562 1636.351562 781.28125 C 1636.289062 781.203125 1645.960938 783.445312 1661.609375 781.050781 C 1663.359375 780.773438 1665.210938 780.421875 1667.101562 780.03125 L 1693.578125 779.128906 C 1703.679688 778.871094 1714.5 779.128906 1726.449219 779.144531 C 1748.488281 779.519531 1770.121094 781.234375 1783.371094 785.894531 C 1790.070312 788.226562 1794.46875 791.746094 1796.359375 795.453125 C 1798.269531 799.148438 1798.210938 801.984375 1798.308594 801.929688 C 1798.179688 801.898438 1799.871094 799.746094 1800.019531 794.640625 C 1800.308594 789.511719 1796.769531 781.636719 1789.738281 775.726562 C 1782.851562 769.652344 1773.398438 764.742188 1762.660156 761.179688 C 1751.828125 757.660156 1739.878906 755.21875 1726.429688 755.136719 C 1723.660156 755.136719 1720.878906 755.21875 1718.121094 755.347656 C 1719.109375 754.46875 1720.050781 753.617188 1721.078125 752.613281 C 1722.328125 751.398438 1723.488281 750.121094 1724.578125 748.84375 C 1726.71875 746.273438 1728.550781 743.652344 1730.171875 740.992188 C 1733.378906 735.671875 1735.71875 730.199219 1737.300781 724.71875 C 1740.460938 713.882812 1740.46875 702.558594 1736.570312 693.953125 C 1732.679688 685.171875 1725.621094 681.421875 1721.421875 680.238281 C 1717.039062 678.960938 1714.609375 679.148438 1714.609375 679.078125 C 1714.578125 679.109375 1716.691406 680.472656 1719.46875 683.445312 C 1722.238281 686.371094 1725.078125 691.203125 1724.960938 697.054688 "/>
<path fill-rule="nonzero" fill="rgb(0%, 0%, 0%)" fill-opacity="1" d="M 1576.941406 539.371094 C 1574.28125 540.988281 1571.648438 542.820312 1569.078125 544.96875 C 1567.820312 546.050781 1566.53125 547.21875 1565.320312 548.46875 C 1564.320312 549.488281 1563.460938 550.421875 1562.589844 551.421875 C 1562.71875 548.660156 1562.808594 545.890625 1562.789062 543.109375 C 1562.71875 529.648438 1560.269531 517.710938 1556.75 506.890625 C 1553.179688 496.148438 1548.28125 486.691406 1542.210938 479.800781 C 1536.300781 472.769531 1528.421875 469.230469 1523.289062 469.519531 C 1518.171875 469.671875 1516.039062 471.359375 1516 471.230469 C 1515.941406 471.320312 1518.78125 471.261719 1522.46875 473.191406 C 1526.179688 475.078125 1529.710938 479.46875 1532.039062 486.171875 C 1536.691406 499.429688 1538.421875 521.050781 1538.789062 543.089844 C 1538.808594 555.039062 1539.058594 565.878906 1538.808594 575.96875 L 1537.890625 602.441406 C 1537.511719 604.328125 1537.160156 606.179688 1536.878906 607.929688 C 1535.710938 615.519531 1535.640625 621.710938 1535.871094 626.058594 C 1536.660156 627.359375 1537.421875 628.671875 1538.191406 629.96875 C 1539.96875 626.328125 1543.300781 619.859375 1548.179688 611.960938 C 1555.800781 599.671875 1566.988281 583.109375 1580.171875 567.75 L 1582.601562 565.011719 C 1583.320312 564.230469 1584.050781 563.488281 1584.828125 562.730469 C 1586.390625 561.230469 1588.101562 559.761719 1589.851562 558.378906 C 1593.371094 555.589844 1597.058594 553.109375 1600.699219 551.050781 C 1608.011719 546.941406 1615.058594 544.53125 1620.871094 544.570312 C 1626.730469 544.460938 1631.558594 547.308594 1634.488281 550.078125 C 1637.449219 552.839844 1638.820312 554.960938 1638.851562 554.929688 C 1638.78125 554.929688 1638.980469 552.519531 1637.699219 548.121094 C 1636.511719 543.941406 1632.75 536.859375 1623.980469 532.980469 C 1615.371094 529.070312 1604.058594 529.089844 1593.210938 532.238281 C 1587.738281 533.828125 1582.261719 536.160156 1576.941406 539.371094 "/>
<path fill-rule="nonzero" fill="rgb(0%, 0%, 0%)" fill-opacity="1" d="M 1535.871094 1037.585938 C 1535.640625 1041.941406 1535.710938 1048.125 1536.878906 1055.714844 C 1537.160156 1057.460938 1537.511719 1059.324219 1537.890625 1061.21875 L 1538.808594 1087.679688 C 1539.058594 1097.765625 1538.808594 1108.601562 1538.789062 1120.558594 C 1538.421875 1142.597656 1536.691406 1164.214844 1532.039062 1177.484375 C 1529.710938 1184.179688 1526.179688 1188.574219 1522.46875 1190.464844 C 1518.78125 1192.386719 1515.941406 1192.324219 1516 1192.417969 C 1516.039062 1192.28125 1518.171875 1193.976562 1523.289062 1194.128906 C 1528.421875 1194.414062 1536.300781 1190.867188 1542.210938 1183.851562 C 1548.28125 1176.960938 1553.179688 1167.503906 1556.75 1156.765625 C 1560.269531 1145.9375 1562.71875 1133.988281 1562.789062 1120.535156 C 1562.808594 1117.761719 1562.71875 1114.988281 1562.589844 1112.230469 C 1563.460938 1113.222656 1564.320312 1114.167969 1565.320312 1115.183594 C 1566.53125 1116.433594 1567.820312 1117.601562 1569.078125 1118.679688 C 1571.648438 1120.832031 1574.28125 1122.664062 1576.941406 1124.28125 C 1582.261719 1127.480469 1587.738281 1129.824219 1593.210938 1131.402344 C 1604.058594 1134.558594 1615.371094 1134.578125 1623.980469 1130.664062 C 1632.75 1126.789062 1636.511719 1119.707031 1637.699219 1115.527344 C 1638.980469 1111.132812 1638.78125 1108.726562 1638.851562 1108.726562 C 1638.820312 1108.679688 1637.449219 1110.800781 1634.488281 1113.566406 C 1631.558594 1116.347656 1626.730469 1119.1875 1620.871094 1119.070312 C 1615.058594 1119.113281 1608.011719 1116.710938 1600.699219 1112.601562 C 1597.058594 1110.53125 1593.371094 1108.0625 1589.851562 1105.28125 C 1588.101562 1103.886719 1586.390625 1102.417969 1584.828125 1100.910156 C 1584.050781 1100.160156 1583.320312 1099.414062 1582.601562 1098.640625 L 1580.171875 1095.894531 C 1566.988281 1080.542969 1555.800781 1063.976562 1548.179688 1051.679688 C 1543.300781 1043.785156 1539.980469 1037.316406 1538.191406 1033.671875 C 1537.421875 1034.976562 1536.660156 1036.289062 1535.871094 1037.585938 "/>
<path fill-rule="nonzero" fill="rgb(0%, 0%, 0%)" fill-opacity="1" d="M 1746.519531 737.300781 C 1746.519531 742.730469 1750.921875 747.125 1756.339844 747.125 C 1761.769531 747.125 1766.179688 742.730469 1766.179688 737.300781 C 1766.179688 731.863281 1761.769531 727.472656 1756.339844 727.472656 C 1750.921875 727.472656 1746.519531 731.863281 1746.519531 737.300781 "/>
<path fill-rule="nonzero" fill="rgb(0%, 0%, 0%)" fill-opacity="1" d="M 1747.839844 921.527344 C 1750.550781 926.230469 1756.570312 927.84375 1761.261719 925.136719 C 1765.96875 922.414062 1767.578125 916.394531 1764.859375 911.699219 C 1762.140625 906.996094 1756.128906 905.382812 1751.429688 908.097656 C 1746.730469 910.816406 1745.121094 916.828125 1747.839844 921.527344 "/>
<path fill-rule="nonzero" fill="rgb(0%, 0%, 0%)" fill-opacity="1" d="M 768.425781 942.699219 C 768.425781 959.148438 793.945312 959.148438 793.945312 942.699219 C 793.945312 926.246094 768.425781 926.246094 768.425781 942.699219 "/>
<path fill-rule="nonzero" fill="rgb(0%, 0%, 0%)" fill-opacity="1" d="M 781.1875 744.050781 C 774.230469 744.050781 768.425781 749.847656 768.425781 756.800781 L 768.425781 758.628906 C 768.425781 765.589844 774.230469 771.378906 781.1875 771.378906 C 788.140625 771.378906 793.945312 765.589844 793.945312 758.628906 L 793.945312 756.800781 C 793.945312 749.847656 788.140625 744.050781 781.1875 744.050781 "/>
<path fill-rule="nonzero" fill="rgb(0%, 0%, 0%)" fill-opacity="1" d="M 761.136719 838.113281 C 754.183594 838.113281 748.382812 843.921875 748.382812 850.882812 C 748.382812 857.824219 754.183594 863.625 761.136719 863.625 L 762.964844 863.625 C 769.917969 863.625 775.722656 857.824219 775.722656 850.882812 C 775.722656 843.921875 769.917969 838.113281 762.964844 838.113281 L 761.136719 838.113281 "/>
<path fill-rule="nonzero" fill="rgb(0%, 0%, 0%)" fill-opacity="1" d="M 824.925781 689.367188 C 824.925781 696.121094 830.945312 698.988281 836.066406 697.980469 C 837.917969 693.460938 839.832031 688.976562 841.84375 684.546875 C 837.671875 677.929688 824.925781 679.539062 824.925781 689.367188 "/>
<path fill-rule="nonzero" fill="rgb(0%, 0%, 0%)" fill-opacity="1" d="M 838.054688 1003.179688 C 832.8125 999.238281 823.109375 1001.554688 823.109375 1010.132812 C 823.109375 1021.710938 840.800781 1021.878906 841.316406 1010.636719 C 840.203125 1008.164062 839.117188 1005.679688 838.054688 1003.179688 "/>
<path fill-rule="nonzero" fill="rgb(0%, 0%, 0%)" fill-opacity="1" d="M 806.761719 905.742188 C 800.582031 903.027344 790.050781 900.917969 777.523438 903.660156 C 765.039062 906.265625 751.128906 913.28125 738.742188 924.542969 C 732.546875 930.160156 726.6875 936.835938 721.648438 944.617188 C 719.121094 948.492188 716.824219 952.671875 714.839844 957.164062 L 713.378906 960.652344 C 712.695312 962.523438 712.011719 964.410156 711.394531 966.527344 C 710.15625 970.625 709.289062 974.796875 708.8125 978.757812 L 707.253906 990.355469 C 715.5 991.214844 723.808594 992.191406 731.558594 992.628906 L 734.429688 992.785156 L 736.179688 992.832031 L 739.394531 992.863281 C 741.539062 992.863281 743.65625 992.824219 745.769531 992.726562 C 754.207031 992.382812 762.421875 991.304688 770.128906 989.425781 C 785.5625 985.796875 798.894531 978.363281 807.210938 969.484375 C 814.050781 962.34375 817.617188 955.007812 819.617188 949.277344 C 819.089844 947.273438 818.585938 945.261719 818.089844 943.242188 C 817.921875 943.488281 817.753906 943.738281 817.574219 943.992188 C 814.117188 948.886719 808.515625 955.523438 799.949219 960.613281 C 791.449219 965.769531 780.101562 969.082031 766.894531 970.085938 C 760.277344 970.59375 753.21875 970.59375 745.816406 970.203125 L 740.199219 969.855469 L 737.351562 969.613281 L 736.058594 969.5 L 735.882812 969.4375 C 735.433594 969.285156 735.753906 969.234375 735.707031 969.179688 L 735.753906 969.15625 C 735.753906 969.15625 735.738281 969.15625 735.707031 969.148438 C 735.679688 969.203125 735.722656 969.046875 735.761719 968.890625 L 736.703125 966.390625 C 738.039062 962.964844 739.621094 959.628906 741.363281 956.40625 C 744.84375 949.929688 748.945312 943.949219 753.316406 938.597656 C 762.078125 927.875 771.976562 919.773438 781.359375 915.019531 C 790.746094 910.179688 799.648438 908.996094 805.902344 909.398438 C 808.074219 909.53125 809.914062 909.78125 811.398438 910.042969 C 811.285156 909.320312 811.164062 908.605469 811.054688 907.882812 C 809.875 907.210938 808.453125 906.480469 806.761719 905.742188 "/>
<path fill-rule="nonzero" fill="rgb(0%, 0%, 0%)" fill-opacity="1" d="M 839.511719 1064.972656 L 842.179688 1062.714844 C 843.835938 1061.265625 845.410156 1059.742188 846.90625 1058.191406 C 851.292969 1053.628906 855.023438 1048.746094 858.132812 1043.722656 C 854.296875 1036.976562 850.664062 1030.101562 847.222656 1023.117188 C 846.21875 1024.636719 845.15625 1026.148438 844.023438 1027.640625 C 840.308594 1032.574219 835.933594 1037.347656 830.976562 1041.65625 C 829.742188 1042.734375 828.46875 1043.777344 827.167969 1044.785156 L 825.320312 1046.167969 C 825.214844 1046.207031 825.1875 1046.207031 825.175781 1046.1875 C 825.09375 1046.121094 825.109375 1046.046875 825.109375 1046.046875 C 825.109375 1046.046875 825.09375 1046.109375 824.992188 1046.121094 C 824.988281 1046.109375 824.988281 1046.152344 824.949219 1046.078125 L 824.433594 1044.925781 L 823.429688 1042.535156 C 822.785156 1040.953125 822.167969 1039.367188 821.605469 1037.78125 C 819.324219 1031.457031 817.71875 1025.195312 816.871094 1019.191406 C 815.121094 1007.171875 816.710938 996.289062 820.808594 987.90625 C 822.847656 983.652344 825.417969 980.0625 828.042969 977.09375 C 827.226562 974.714844 826.441406 972.324219 825.667969 969.925781 C 821.058594 972.207031 815.886719 975.652344 810.964844 981.027344 C 802.785156 989.824219 796.867188 1004.261719 796.644531 1020.132812 C 796.457031 1028.074219 797.472656 1036.3125 799.625 1044.492188 C 800.15625 1046.535156 800.773438 1048.570312 801.457031 1050.609375 L 802.523438 1053.648438 L 803.113281 1055.207031 L 804.214844 1057.851562 C 807.277344 1065.109375 811.167969 1071.523438 814.917969 1078.410156 L 815.03125 1078.617188 C 821.902344 1075.347656 828.453125 1072.898438 834.921875 1068.371094 C 836.523438 1067.269531 838.082031 1066.121094 839.511719 1064.972656 "/>
<path fill-rule="nonzero" fill="rgb(0%, 0%, 0%)" fill-opacity="1" d="M 776.253906 886.132812 C 789.183594 884.269531 799.949219 880.664062 807.597656 876.480469 C 807.472656 874.703125 807.359375 872.925781 807.257812 871.140625 C 799.398438 873.5 788.527344 874.734375 775.570312 874.15625 C 760.277344 873.53125 742.089844 870.710938 722.585938 865.605469 C 712.847656 863.019531 702.753906 859.890625 692.699219 855.984375 C 690.199219 854.988281 687.683594 853.976562 685.21875 852.898438 L 683.433594 852.105469 L 683.410156 852.054688 L 683.402344 851.964844 C 683.429688 851.871094 683.511719 851.871094 683.511719 851.871094 C 683.511719 851.871094 683.417969 851.855469 683.410156 851.765625 L 683.429688 851.683594 C 683.472656 851.652344 683.335938 851.714844 683.570312 851.589844 L 684.511719 851.144531 L 686.40625 850.285156 L 693.9375 846.945312 C 703.941406 842.671875 713.765625 839.058594 723.28125 836.222656 C 742.296875 830.523438 760.097656 828.167969 775.09375 828.921875 C 788.121094 829.484375 798.933594 832.265625 806.8125 835.179688 C 806.871094 833.367188 806.9375 831.558594 807.019531 829.753906 C 799.816406 825.128906 789.753906 820.179688 776.832031 817.09375 C 760.613281 813.109375 740.214844 812.550781 718.640625 816.578125 C 707.828125 818.546875 696.710938 821.585938 685.570312 825.589844 C 682.789062 826.601562 679.996094 827.65625 677.203125 828.78125 L 672.226562 830.878906 L 664.328125 834.480469 C 653.796875 839.476562 644.179688 844.851562 633.8125 850.300781 L 634.960938 851.058594 C 644.484375 857.199219 652.0625 862.945312 662.359375 868.289062 C 664.933594 869.574219 667.503906 870.828125 670.171875 871.988281 L 674.132812 873.6875 L 676.390625 874.582031 C 679.277344 875.683594 682.164062 876.695312 685.03125 877.628906 C 696.492188 881.339844 707.746094 883.800781 718.523438 885.441406 C 740.109375 888.679688 759.886719 888.566406 776.253906 886.132812 "/>
<path fill-rule="nonzero" fill="rgb(0%, 0%, 0%)" fill-opacity="1" d="M 807.210938 730.6875 C 798.894531 721.824219 785.5625 714.371094 770.128906 710.738281 C 762.421875 708.859375 754.207031 707.789062 745.769531 707.4375 C 743.65625 707.347656 741.539062 707.300781 739.394531 707.300781 L 736.179688 707.339844 L 734.429688 707.378906 L 731.558594 707.546875 C 723.808594 707.976562 715.5 708.953125 707.253906 709.816406 L 708.8125 721.394531 C 709.289062 725.382812 710.15625 729.539062 711.394531 733.644531 C 712.011719 735.765625 712.695312 737.648438 713.378906 739.527344 L 714.839844 743.007812 C 716.824219 747.492188 719.121094 751.664062 721.648438 755.546875 C 726.6875 763.339844 732.546875 770.011719 738.742188 775.636719 C 751.128906 786.867188 765.039062 793.890625 777.523438 796.503906 C 790.050781 799.246094 800.582031 797.136719 806.761719 794.429688 C 808.183594 793.808594 809.417969 793.191406 810.476562 792.609375 C 810.589844 791.8125 810.695312 791.019531 810.8125 790.226562 C 809.4375 790.453125 807.796875 790.660156 805.902344 790.78125 C 799.648438 791.167969 790.746094 789.992188 781.359375 785.148438 C 771.976562 780.402344 762.078125 772.289062 753.316406 761.566406 C 748.945312 756.214844 744.84375 750.222656 741.363281 743.769531 C 739.621094 740.546875 738.039062 737.1875 736.703125 733.773438 L 735.761719 731.28125 C 735.722656 731.128906 735.679688 730.96875 735.707031 731.023438 C 735.738281 731.023438 735.753906 731.023438 735.753906 731.023438 L 735.707031 730.984375 C 735.753906 730.945312 735.433594 730.878906 735.882812 730.726562 L 736.058594 730.671875 L 737.351562 730.550781 L 740.199219 730.316406 L 745.816406 729.960938 C 753.21875 729.570312 760.277344 729.570312 766.894531 730.09375 C 780.101562 731.085938 791.449219 734.386719 799.949219 739.558594 C 808.375 744.5625 813.929688 751.070312 817.402344 755.925781 C 817.929688 753.703125 818.457031 751.480469 819.023438 749.273438 C 816.933594 743.8125 813.421875 737.164062 807.210938 730.6875 "/>
<path fill-rule="nonzero" fill="rgb(0%, 0%, 0%)" fill-opacity="1" d="M 827.109375 721.984375 C 824.8125 719.238281 822.605469 716.011719 820.808594 712.265625 C 816.710938 703.875 815.121094 692.996094 816.871094 680.976562 C 817.71875 674.980469 819.324219 668.71875 821.605469 662.378906 C 822.167969 660.800781 822.785156 659.21875 823.429688 657.628906 L 824.433594 655.238281 L 824.949219 654.089844 C 824.988281 654.03125 824.988281 654.058594 824.992188 654.050781 C 825.09375 654.050781 825.109375 654.121094 825.109375 654.121094 C 825.109375 654.121094 825.09375 654.050781 825.175781 653.988281 C 825.1875 653.960938 825.214844 653.960938 825.320312 654 L 827.167969 655.390625 C 828.46875 656.390625 829.742188 657.429688 830.976562 658.519531 C 835.933594 662.820312 840.308594 667.601562 844.023438 672.519531 C 844.753906 673.488281 845.453125 674.449219 846.128906 675.429688 C 849.546875 668.378906 853.183594 661.46875 856.996094 654.660156 C 854.128906 650.269531 850.769531 646 846.90625 641.980469 C 845.410156 640.421875 843.835938 638.910156 842.179688 637.441406 L 839.511719 635.179688 C 838.082031 634.039062 836.523438 632.898438 834.921875 631.789062 C 828.453125 627.261719 821.902344 624.820312 815.03125 621.550781 L 814.917969 621.761719 C 811.167969 628.648438 807.277344 635.058594 804.214844 642.320312 L 803.113281 644.96875 L 802.523438 646.519531 L 801.457031 649.558594 C 800.773438 651.601562 800.15625 653.628906 799.625 655.679688 C 797.472656 663.859375 796.457031 672.101562 796.644531 680.03125 C 796.867188 695.910156 802.785156 710.351562 810.964844 719.128906 C 815.511719 724.101562 820.269531 727.421875 824.605469 729.695312 C 825.410156 727.113281 826.246094 724.546875 827.109375 721.984375 "/>
<path fill-rule="nonzero" fill="rgb(0%, 0%, 0%)" fill-opacity="1" d="M 616.628906 808.773438 C 629.882812 804.121094 651.511719 802.394531 673.546875 802.023438 C 685.503906 802.015625 696.324219 801.742188 706.417969 802.015625 L 732.902344 802.917969 C 734.789062 803.289062 736.644531 803.648438 738.390625 803.933594 C 754.039062 806.324219 763.714844 804.082031 763.644531 804.152344 C 763.652344 804.105469 754.789062 800.265625 742.425781 792.621094 C 730.121094 785 713.570312 773.820312 698.210938 760.640625 L 695.472656 758.199219 C 694.691406 757.492188 693.945312 756.765625 693.195312 755.980469 C 691.679688 754.414062 690.222656 752.699219 688.832031 750.957031 C 686.050781 747.445312 683.570312 743.753906 681.511719 740.113281 C 677.390625 732.808594 674.992188 725.753906 675.035156 719.933594 C 674.921875 714.074219 677.765625 709.25 680.53125 706.316406 C 683.304688 703.351562 685.425781 701.992188 685.386719 701.96875 C 685.386719 702.027344 682.964844 701.828125 678.578125 703.113281 C 674.382812 704.300781 667.320312 708.046875 663.429688 716.832031 C 659.523438 725.429688 659.539062 736.761719 662.699219 747.597656 C 664.277344 753.070312 666.621094 758.542969 669.828125 763.863281 C 671.449219 766.523438 673.28125 769.160156 675.425781 771.722656 C 676.511719 772.988281 677.675781 774.269531 678.921875 775.496094 C 679.945312 776.488281 680.886719 777.34375 681.882812 778.226562 C 679.117188 778.089844 676.34375 778.007812 673.570312 778.007812 C 660.117188 778.089844 648.171875 780.53125 637.339844 784.050781 C 626.601562 787.628906 617.144531 792.53125 610.261719 798.59375 C 603.230469 804.523438 599.6875 812.382812 599.976562 817.519531 C 600.128906 822.640625 601.816406 824.769531 601.6875 824.808594 C 601.785156 824.859375 601.726562 822.027344 603.640625 818.335938 C 605.53125 814.617188 609.933594 811.097656 616.628906 808.773438 "/>
<path fill-rule="nonzero" fill="rgb(0%, 0%, 0%)" fill-opacity="1" d="M 675.035156 982.945312 C 674.992188 977.128906 677.390625 970.070312 681.511719 962.765625 C 683.570312 959.132812 686.050781 955.441406 688.832031 951.914062 C 690.222656 950.171875 691.679688 948.453125 693.195312 946.890625 C 693.945312 946.121094 694.691406 945.375 695.472656 944.679688 L 698.210938 942.230469 C 713.570312 929.058594 730.121094 917.878906 742.425781 910.257812 C 754.789062 902.609375 763.652344 898.773438 763.644531 898.71875 C 763.714844 898.796875 754.039062 896.554688 738.390625 898.949219 C 736.644531 899.226562 734.789062 899.578125 732.902344 899.96875 L 706.417969 900.871094 C 696.324219 901.128906 685.503906 900.871094 673.546875 900.855469 C 651.511719 900.480469 629.882812 898.765625 616.628906 894.105469 C 609.933594 891.773438 605.53125 888.253906 603.640625 884.546875 C 601.726562 880.851562 601.785156 878.015625 601.6875 878.070312 C 601.816406 878.101562 600.128906 880.253906 599.976562 885.359375 C 599.6875 890.488281 603.230469 898.363281 610.261719 904.273438 C 617.144531 910.347656 626.601562 915.257812 637.339844 918.820312 C 648.171875 922.339844 660.117188 924.78125 673.570312 924.863281 C 676.34375 924.863281 679.117188 924.78125 681.882812 924.652344 C 680.886719 925.53125 679.945312 926.382812 678.921875 927.386719 C 677.675781 928.601562 676.511719 929.878906 675.425781 931.15625 C 673.28125 933.726562 671.449219 936.347656 669.828125 939.007812 C 666.621094 944.328125 664.277344 949.800781 662.699219 955.28125 C 659.539062 966.117188 659.523438 977.441406 663.429688 986.046875 C 667.320312 994.828125 674.382812 998.578125 678.578125 999.765625 C 682.964844 1001.039062 685.386719 1000.847656 685.386719 1000.917969 C 685.425781 1000.886719 683.304688 999.527344 680.53125 996.554688 C 677.765625 993.628906 674.921875 988.796875 675.035156 982.945312 "/>
<path fill-rule="nonzero" fill="rgb(0%, 0%, 0%)" fill-opacity="1" d="M 823.0625 1140.625 C 825.71875 1139.003906 828.347656 1137.183594 830.914062 1135.03125 C 832.183594 1133.949219 833.46875 1132.78125 834.683594 1131.535156 C 835.679688 1130.507812 836.539062 1129.582031 837.414062 1128.578125 C 837.285156 1131.34375 837.195312 1134.109375 837.210938 1136.894531 C 837.285156 1150.347656 839.730469 1162.289062 843.25 1173.113281 C 846.816406 1183.855469 851.726562 1193.308594 857.789062 1200.203125 C 863.699219 1207.226562 871.574219 1210.773438 876.703125 1210.476562 C 881.828125 1210.324219 883.964844 1208.636719 883.996094 1208.769531 C 884.054688 1208.675781 881.222656 1208.738281 877.527344 1206.8125 C 873.816406 1204.921875 870.289062 1200.527344 867.964844 1193.824219 C 863.308594 1180.570312 861.582031 1158.949219 861.210938 1136.914062 C 861.191406 1124.960938 860.933594 1114.121094 861.191406 1104.027344 L 862.105469 1077.558594 C 862.484375 1075.671875 862.84375 1073.820312 863.125 1072.070312 C 864.285156 1064.480469 864.355469 1058.289062 864.128906 1053.9375 C 863.34375 1052.644531 862.582031 1051.332031 861.808594 1050.027344 C 860.023438 1053.671875 856.699219 1060.136719 851.816406 1068.035156 C 844.199219 1080.332031 833.007812 1096.894531 819.835938 1112.253906 L 817.394531 1114.988281 C 816.679688 1115.773438 815.949219 1116.507812 815.167969 1117.269531 C 813.609375 1118.765625 811.898438 1120.242188 810.152344 1121.625 C 806.632812 1124.414062 802.9375 1126.890625 799.296875 1128.949219 C 791.996094 1133.0625 784.941406 1135.472656 779.128906 1135.425781 C 773.265625 1135.539062 768.433594 1132.691406 765.507812 1129.914062 C 762.546875 1127.15625 761.183594 1125.035156 761.144531 1125.074219 C 761.222656 1125.074219 761.023438 1127.484375 762.300781 1131.878906 C 763.496094 1136.0625 767.246094 1143.140625 776.019531 1147.023438 C 784.628906 1150.929688 795.941406 1150.90625 806.789062 1147.761719 C 812.265625 1146.171875 817.734375 1143.839844 823.0625 1140.625 "/>
<path fill-rule="nonzero" fill="rgb(0%, 0%, 0%)" fill-opacity="1" d="M 864.128906 642.410156 C 864.355469 638.058594 864.285156 631.871094 863.125 624.289062 C 862.84375 622.539062 862.484375 620.679688 862.105469 618.78125 L 861.191406 592.320312 C 860.933594 582.230469 861.191406 571.398438 861.210938 559.441406 C 861.582031 537.398438 863.308594 515.789062 867.964844 502.519531 C 870.289062 495.820312 873.816406 491.429688 877.527344 489.539062 C 881.222656 487.609375 884.054688 487.671875 883.996094 487.578125 C 883.964844 487.71875 881.828125 486.019531 876.703125 485.871094 C 871.574219 485.578125 863.699219 489.128906 857.789062 496.148438 C 851.726562 503.039062 846.816406 512.488281 843.25 523.230469 C 839.730469 534.058594 837.285156 546.011719 837.210938 559.460938 C 837.195312 562.238281 837.285156 565.011719 837.414062 567.769531 C 836.539062 566.78125 835.679688 565.828125 834.683594 564.820312 C 833.46875 563.570312 832.183594 562.398438 830.914062 561.320312 C 828.347656 559.171875 825.71875 557.339844 823.0625 555.71875 C 817.734375 552.519531 812.265625 550.179688 806.789062 548.601562 C 795.941406 545.441406 784.628906 545.421875 776.019531 549.328125 C 767.246094 553.210938 763.496094 560.289062 762.300781 564.46875 C 761.023438 568.871094 761.222656 571.269531 761.144531 571.269531 C 761.183594 571.320312 762.546875 569.199219 765.507812 566.429688 C 768.433594 563.648438 773.265625 560.808594 779.128906 560.929688 C 784.941406 560.890625 791.996094 563.289062 799.296875 567.398438 C 802.9375 569.46875 806.632812 571.941406 810.152344 574.71875 C 811.898438 576.121094 813.609375 577.578125 815.167969 579.089844 C 815.949219 579.839844 816.679688 580.589844 817.394531 581.359375 L 819.835938 584.101562 C 833.007812 599.460938 844.199219 616.03125 851.816406 628.320312 C 856.695312 636.210938 860.023438 642.679688 861.804688 646.328125 C 862.578125 645.019531 863.339844 643.710938 864.128906 642.410156 "/>
<path fill-rule="nonzero" fill="rgb(0%, 0%, 0%)" fill-opacity="1" d="M 653.480469 942.699219 C 653.480469 937.269531 649.082031 932.875 643.65625 932.875 C 638.230469 932.875 633.820312 937.269531 633.820312 942.699219 C 633.820312 948.136719 638.230469 952.527344 643.65625 952.527344 C 649.082031 952.527344 653.480469 948.136719 653.480469 942.699219 "/>
<path fill-rule="nonzero" fill="rgb(0%, 0%, 0%)" fill-opacity="1" d="M 652.160156 758.472656 C 649.445312 753.769531 643.433594 752.15625 638.738281 754.863281 C 634.03125 757.585938 632.421875 763.605469 635.136719 768.300781 C 637.855469 773.003906 643.867188 774.617188 648.570312 771.902344 C 653.269531 769.183594 654.878906 763.171875 652.160156 758.472656 "/>
<path fill-rule="nonzero" fill="rgb(0%, 0%, 0%)" fill-opacity="1" d="M 1200 461.851562 C 1304.421875 461.851562 1398.960938 504.171875 1467.390625 572.609375 C 1535.828125 641.039062 1578.148438 735.578125 1578.148438 840 C 1578.148438 944.421875 1535.828125 1038.960938 1467.390625 1107.394531 C 1398.960938 1175.828125 1304.421875 1218.15625 1200 1218.15625 C 1095.578125 1218.15625 1001.039062 1175.828125 932.605469 1107.394531 C 864.171875 1038.960938 821.84375 944.421875 821.84375 840 C 821.84375 735.578125 864.171875 641.039062 932.605469 572.609375 C 1001.039062 504.171875 1095.578125 461.851562 1200 461.851562 Z M 1454.601562 585.398438 C 1389.449219 520.238281 1299.429688 479.941406 1200 479.941406 C 1100.570312 479.941406 1010.550781 520.238281 945.398438 585.398438 C 880.238281 650.550781 839.9375 740.570312 839.9375 840 C 839.9375 939.429688 880.238281 1029.445312 945.398438 1094.601562 C 1010.550781 1159.761719 1100.570312 1200.0625 1200 1200.0625 C 1299.429688 1200.0625 1389.449219 1159.761719 1454.601562 1094.601562 C 1519.761719 1029.445312 1560.058594 939.429688 1560.058594 840 C 1560.058594 740.570312 1519.761719 650.550781 1454.601562 585.398438 "/>
<path fill-rule="nonzero" fill="rgb(0%, 0%, 0%)" fill-opacity="1" d="M 1200 493.199219 C 1295.761719 493.199219 1382.460938 532.019531 1445.21875 594.78125 C 1507.980469 657.539062 1546.800781 744.234375 1546.800781 840 C 1546.800781 935.765625 1507.980469 1022.464844 1445.21875 1085.222656 C 1382.460938 1147.984375 1295.761719 1186.800781 1200 1186.800781 C 1104.238281 1186.800781 1017.539062 1147.984375 954.777344 1085.222656 C 892.015625 1022.464844 853.199219 935.765625 853.199219 840 C 853.199219 744.234375 892.015625 657.539062 954.777344 594.78125 C 1017.539062 532.019531 1104.238281 493.199219 1200 493.199219 Z M 1433.488281 606.511719 C 1373.738281 546.75 1291.179688 509.789062 1200 509.789062 C 1108.808594 509.789062 1026.261719 546.75 966.507812 606.511719 C 906.753906 666.261719 869.792969 748.816406 869.792969 840 C 869.792969 931.183594 906.75 1013.738281 966.507812 1073.492188 C 1026.261719 1133.246094 1108.808594 1170.207031 1200 1170.207031 C 1291.179688 1170.207031 1373.738281 1133.246094 1433.488281 1073.492188 C 1493.25 1013.738281 1530.210938 931.183594 1530.210938 840 C 1530.210938 748.816406 1493.25 666.261719 1433.488281 606.511719 "/>
<path fill-rule="nonzero" fill="rgb(0%, 0%, 0%)" fill-opacity="1" d="M 1050.53125 1070.644531 L 1051.578125 929.886719 L 1059.589844 931.28125 C 1069.121094 967.050781 1080.5 995.15625 1093.738281 1015.710938 C 1118.46875 1053.6875 1149.710938 1072.734375 1187.230469 1072.734375 C 1213.46875 1072.734375 1235.070312 1064.023438 1252.140625 1046.488281 C 1269.21875 1029.066406 1277.691406 1006.886719 1277.691406 980.175781 C 1277.691406 968.5625 1275.839844 956.714844 1272 944.753906 C 1268.289062 932.675781 1263.289062 922.339844 1256.910156 913.746094 C 1250.289062 904.917969 1241 896.441406 1229.03125 888.195312 C 1217.070312 880.066406 1198.839844 869.730469 1174.21875 857.1875 C 1152.5 846.386719 1136.011719 837.097656 1124.511719 829.664062 C 1113.011719 822.113281 1103.71875 814.566406 1096.640625 806.902344 C 1077.011719 785.53125 1067.261719 759.519531 1067.261719 728.859375 C 1067.261719 710.046875 1071.089844 691.929688 1078.761719 674.390625 C 1086.300781 656.96875 1096.988281 641.988281 1110.691406 629.449219 C 1134.851562 607.269531 1163.53125 596.121094 1196.519531 596.121094 C 1207.320312 596.121094 1217.191406 597.160156 1226.359375 599.25 C 1235.421875 601.460938 1247.609375 605.640625 1262.941406 612.03125 C 1274.328125 616.558594 1282.109375 619.460938 1286.171875 620.621094 C 1290.351562 621.898438 1293.949219 622.480469 1297.199219 622.480469 C 1305.101562 622.480469 1310.441406 616.789062 1313.230469 605.179688 L 1320.898438 605.179688 L 1322.988281 740.355469 L 1315.320312 740.355469 C 1309.171875 718.753906 1303.941406 702.148438 1299.410156 690.652344 C 1295 679.148438 1289.769531 668.589844 1283.621094 658.828125 C 1272.46875 641.058594 1260.160156 627.941406 1246.800781 619.339844 C 1233.328125 610.871094 1217.878906 606.570312 1200.351562 606.570312 C 1174.910156 606.570312 1154.820312 615.160156 1139.960938 632.46875 C 1133.800781 639.550781 1129.039062 647.910156 1125.558594 657.441406 C 1121.960938 666.960938 1120.21875 676.480469 1120.21875 686.121094 C 1120.21875 724.097656 1144.601562 754.640625 1193.5 777.867188 L 1241.460938 801.09375 C 1278.511719 818.632812 1305.21875 838.027344 1321.480469 859.160156 C 1340.171875 882.855469 1349.460938 910.378906 1349.460938 941.734375 C 1349.460938 962.523438 1345.28125 982.382812 1336.808594 1001.3125 C 1324.960938 1027.671875 1307.191406 1048.113281 1283.621094 1062.398438 C 1259.929688 1076.683594 1232.050781 1083.882812 1199.878906 1083.882812 C 1170.5 1083.882812 1142.28125 1078.074219 1115.21875 1066.347656 C 1101.050781 1060.074219 1092.691406 1056.589844 1089.898438 1055.660156 C 1087.230469 1054.734375 1084.101562 1054.269531 1080.730469 1054.269531 C 1069.808594 1054.269531 1062.261719 1059.726562 1058.199219 1070.644531 L 1050.53125 1070.644531 "/>
</svg>
